<svg width="103" height="35" viewBox="0 0 103 35" fill="none" xmlns="http://www.w3.org/2000/svg"><path d="M18.4088 16.7796C17.7666 16.1424 16.6963 15.1866 15.519 14.7618C14.3417 14.2308 12.9503 13.9123 11.666 13.9123C6.42166 13.9123 2.67569 18.0539 2.67569 23.1514C2.67569 29.2046 7.59896 32.2843 11.773 32.2843C13.2714 32.2843 14.7698 31.8595 15.9471 31.2223C17.2314 30.5852 18.0877 29.7356 18.5158 29.3108V32.3905C15.9471 34.1959 13.4855 34.5145 11.773 34.5145C4.92327 34.5145 0 29.5232 0 23.0452C0 16.3548 5.0303 11.4697 11.773 11.4697C13.1644 11.4697 15.7331 11.6821 18.4088 13.6999V16.7796Z" fill="#67579C"/><path d="M22.3691 20.2839H24.8308V21.7707C25.1519 21.3459 26.1151 19.9653 27.9346 19.9653C28.6838 19.9653 29.433 20.2839 30.0751 20.4963L28.8978 22.6203C28.3627 22.1955 27.8276 22.0893 27.5065 22.0893C26.5432 22.0893 25.9011 22.5141 25.58 22.9388C25.1519 23.4698 24.8308 24.4256 24.8308 26.6557V33.9833H22.3691V20.2839Z" fill="#67579C"/><path d="M43.8812 30.585C43.4531 31.3284 42.9179 32.178 42.1687 32.8152C40.8844 33.9833 39.386 34.5143 37.5666 34.5143C34.2487 34.5143 30.7168 32.4966 30.7168 27.2929C30.7168 23.1512 33.2855 19.9653 37.4595 19.9653C40.2423 19.9653 41.8477 21.3459 42.7039 22.5141C43.5601 23.7884 44.0952 25.8062 43.9882 27.7177H33.0714C33.0714 30.585 35.1049 32.3904 37.4595 32.3904C38.5298 32.3904 39.4931 32.0718 40.3493 31.4346C40.9914 30.9036 41.5266 30.1602 41.8477 29.5231L43.8812 30.585ZM41.5266 25.7C41.0985 23.576 39.4931 22.0893 37.4595 22.0893C35.426 22.0893 33.7136 23.576 33.3925 25.7H41.5266Z" fill="#67579C"/><path d="M58.3301 9.77051H60.7917V34.0896H58.3301V32.1781C57.5809 33.24 55.9755 34.5144 53.5138 34.5144C49.9819 34.5144 46.6641 32.0719 46.6641 27.1868C46.6641 22.4079 49.8749 19.9654 53.5138 19.9654C56.1895 19.9654 57.6879 21.4522 58.3301 22.3017V9.77051ZM49.2327 27.1868C49.2327 30.1603 50.9452 32.3904 53.8349 32.3904C56.8317 32.3904 58.4371 29.9479 58.4371 27.1868C58.4371 23.5761 55.9755 22.0893 53.8349 22.0893C51.4803 21.9832 49.2327 23.7885 49.2327 27.1868Z" fill="#67579C"/><path d="M66.2505 13.2749C67.2138 13.2749 67.963 14.0183 67.963 14.9741C67.963 15.9298 67.2138 16.6732 66.2505 16.6732C65.2873 16.6732 64.5381 15.9298 64.5381 14.9741C64.5381 14.0183 65.2873 13.2749 66.2505 13.2749ZM67.4278 20.2839V34.1957H64.9662V20.2839H67.4278Z" fill="#67579C"/><path d="M74.4917 22.4079V34.0896H72.03V22.4079H70.6387V20.1778H72.1371V15.1865H74.5987V20.1778H77.0603V22.4079H74.4917Z" fill="#67579C"/><path d="M91.9362 1.59326C84.2303 1.59326 80.4843 8.28367 81.5546 15.3989C81.6616 16.3546 82.5178 18.7972 83.267 20.6025C84.5513 23.3636 86.1568 26.1247 87.4411 28.3549L96.9665 12.0006H86.6919V10.089H87.4411H99.2141H99.8563V10.8324L99.2141 11.8944L88.6184 30.2664C90.0098 32.4966 91.1871 33.8771 91.5081 33.8771C92.4714 33.8771 100.927 23.576 102.532 15.1865C103.816 8.07127 99.6422 1.59326 91.9362 1.59326Z" fill="#59C2A4"/></svg>