<svg xmlns="http://www.w3.org/2000/svg" xmlns:xlink="http://www.w3.org/1999/xlink" viewBox="0 0 269.19 49.09"><defs><style>.cls-1{fill:#000102;}.cls-2{fill:#5fb073;}.cls-3{fill:url(#Безымянный_градиент_21);}.cls-4{fill:#accf82;}.cls-5{fill:url(#Безымянный_градиент_16);}.cls-6{fill:url(#Безымянный_градиент_19);}.cls-7{fill:#dc4e20;}.cls-8{fill:#fff;}</style><linearGradient id="Безымянный_градиент_21" x1="-117.74" y1="-197.13" x2="-71.96" y2="-201.21" gradientTransform="matrix(0.62, 0.84, -0.79, 0.65, -73.42, 234.86)" gradientUnits="userSpaceOnUse"><stop offset="0" stop-color="#abcf81"/><stop offset="0.62" stop-color="#63ba79"/><stop offset="1" stop-color="#3caf74"/></linearGradient><linearGradient id="Безымянный_градиент_16" x1="11.74" y1="33.55" x2="34.01" y2="33.55" gradientUnits="userSpaceOnUse"><stop offset="0" stop-color="#eeac38"/><stop offset="0.04" stop-color="#eca236"/><stop offset="0.21" stop-color="#e6842e"/><stop offset="0.38" stop-color="#e26c28"/><stop offset="0.56" stop-color="#df5b23"/><stop offset="0.75" stop-color="#dd5121"/><stop offset="1" stop-color="#dc4e20"/></linearGradient><linearGradient id="Безымянный_градиент_19" y1="22.89" x2="17.65" y2="22.89" gradientUnits="userSpaceOnUse"><stop offset="0" stop-color="#eeac38"/><stop offset="0.16" stop-color="#e99131"/><stop offset="0.38" stop-color="#e3742a"/><stop offset="0.59" stop-color="#df5f24"/><stop offset="0.8" stop-color="#dd5221"/><stop offset="1" stop-color="#dc4e20"/></linearGradient></defs><title>Ресурс 1</title><g id="Слой_2" data-name="Слой 2"><g id="Слой_4" data-name="Слой 4"><path class="cls-1" d="M163.1,34.91a10.73,10.73,0,0,1,3.21-8,10.9,10.9,0,0,1,7.94-3.15,12.34,12.34,0,0,1,4.31.78A8.68,8.68,0,0,1,182,26.79l-1.48,2.15a8.94,8.94,0,0,0-6.21-2.62,8,8,0,0,0-5.92,2.41,8.43,8.43,0,0,0-2.37,6.17A8.26,8.26,0,0,0,168.44,41a8.11,8.11,0,0,0,6,2.39,9.51,9.51,0,0,0,3.72-.78,8.56,8.56,0,0,0,3.08-2.13l1.31,2.15a9.64,9.64,0,0,1-3.61,2.47,12.21,12.21,0,0,1-4.67.91,11,11,0,0,1-8-3.11A10.68,10.68,0,0,1,163.1,34.91Z"/><path class="cls-1" d="M187.43,45.51V24.26h2.83v3.93l-.17,1.69h.08a9.72,9.72,0,0,1,2.64-4.18A6,6,0,0,1,197,24a4.69,4.69,0,0,1,1.14.13V27a4.13,4.13,0,0,0-1.06-.08,5.32,5.32,0,0,0-3.84,1.56A8.62,8.62,0,0,0,191,32.14a14.53,14.53,0,0,0-.65,4.37v9Z"/><path class="cls-1" d="M200.36,34.91a11,11,0,0,1,3-8.11,10.15,10.15,0,0,1,7.5-3,8,8,0,0,1,6.55,2.81,10.61,10.61,0,0,1,2.32,7q0,.51-.08,1.44H203.36a8.34,8.34,0,0,0,2.45,6.17,8.1,8.1,0,0,0,5.79,2.24,9.32,9.32,0,0,0,6.46-2.54l1.31,2.2a11,11,0,0,1-3.61,2.15,12,12,0,0,1-4.25.8,10.92,10.92,0,0,1-8-3.13A10.7,10.7,0,0,1,200.36,34.91Zm3.13-2.2h13.35A7.08,7.08,0,0,0,215,27.83a5.7,5.7,0,0,0-4.23-1.71A7.12,7.12,0,0,0,206,27.85,7.77,7.77,0,0,0,203.49,32.71Z"/><path class="cls-1" d="M226.32,42.93a12.37,12.37,0,0,1-2.51-8.07,11.83,11.83,0,0,1,2.66-8,8.74,8.74,0,0,1,6.93-3.06,7.91,7.91,0,0,1,4.12,1.12,7.3,7.3,0,0,1,2.85,3.06h.08a9.3,9.3,0,0,1-.13-1.61V15.81h2.87v29.7h-2.79V43.1l.13-1.52h-.08A8,8,0,0,1,233.06,46,8.25,8.25,0,0,1,226.32,42.93Zm.44-8.07a9.67,9.67,0,0,0,1.88,6.23,6,6,0,0,0,4.88,2.34,6.34,6.34,0,0,0,4.88-2.15q2-2.15,2-6.46a10.09,10.09,0,0,0-1.75-6,5.71,5.71,0,0,0-5-2.49,6.25,6.25,0,0,0-4.9,2.28A9.14,9.14,0,0,0,226.77,34.86Z"/><path class="cls-1" d="M249.92,19.4V15.81H253V19.4ZM250,45.51V24.26h2.87V45.51Z"/><path class="cls-1" d="M260.52,37.78V26.84h-2.79V24.43h2.83v-6h2.83v6h5.37v2.41H263.4V37.48a7.57,7.57,0,0,0,.51,2.94,3.72,3.72,0,0,0,1.31,1.73,5.74,5.74,0,0,0,1.52.74,5.2,5.2,0,0,0,1.48.21,4.56,4.56,0,0,0,1-.08v2.58a7.62,7.62,0,0,1-1.23.08,11.68,11.68,0,0,1-1.73-.13,7.47,7.47,0,0,1-1.92-.61,5.65,5.65,0,0,1-3.23-3.61A10.42,10.42,0,0,1,260.52,37.78Z"/><path class="cls-2" d="M80.47,35.09A11.17,11.17,0,0,1,83.53,27a10.57,10.57,0,0,1,7.92-3.15,8.84,8.84,0,0,1,7,2.89A10.72,10.72,0,0,1,101,34q0,.37,0,.91a1.27,1.27,0,0,1-1.27,1.16H86a5.91,5.91,0,0,0,2.07,4.2,6.68,6.68,0,0,0,4.39,1.5,9.25,9.25,0,0,0,5.05-1.56,1.27,1.27,0,0,1,1.8.45l.91,1.65A1.28,1.28,0,0,1,99.85,44a12.3,12.3,0,0,1-3.05,1.54,14.13,14.13,0,0,1-4.71.82,11.25,11.25,0,0,1-8.41-3.27A11,11,0,0,1,80.47,35.09Zm5.66-2.66h9.51a4.7,4.7,0,0,0-1.25-3.34,4.11,4.11,0,0,0-3.06-1.23,5,5,0,0,0-3.42,1.25A5.67,5.67,0,0,0,86.13,32.42Z"/><path class="cls-2" d="M105,39.14v-22a1.27,1.27,0,0,1,1.27-1.27h2.78a1.27,1.27,0,0,1,1.27,1.27V38.34a3.75,3.75,0,0,0,.53,2.32,2.05,2.05,0,0,0,1.67.63h0a.79.79,0,0,1,.79.79v2.7a1.27,1.27,0,0,1-1.2,1.27l-.49,0a10.48,10.48,0,0,1-2.32-.23,6.84,6.84,0,0,1-2.07-.89,4.26,4.26,0,0,1-1.65-2.13A9.94,9.94,0,0,1,105,39.14Z"/><path class="cls-2" d="M117.22,44.59V17.13a1.27,1.27,0,0,1,1.27-1.27h2.82a1.27,1.27,0,0,1,1.27,1.27V31.92h2a1.27,1.27,0,0,0,1-.55l4.44-6.5a1.27,1.27,0,0,1,1-.55h2.83a1.27,1.27,0,0,1,1,2l-5.39,7.63V34L136,43.9a1.27,1.27,0,0,1-1.07,2h-3.12a1.27,1.27,0,0,1-1.09-.61l-5-8.2a1.27,1.27,0,0,0-1.09-.61h-2.07v8.15a1.27,1.27,0,0,1-1.27,1.27h-2.82A1.27,1.27,0,0,1,117.22,44.59Z"/><path class="cls-2" d="M138.55,39.9A6.15,6.15,0,0,1,139.8,36a7.13,7.13,0,0,1,3.3-2.34,21.27,21.27,0,0,1,4-1,26.58,26.58,0,0,1,4-.3H152V32q0-3.8-4.06-3.8a10,10,0,0,0-4.88,1.38,1.27,1.27,0,0,1-1.75-.52l-.84-1.62A1.26,1.26,0,0,1,141,25.8a14.52,14.52,0,0,1,2.77-1.21,14.89,14.89,0,0,1,4.69-.78A9.16,9.16,0,0,1,155,26.07a8.32,8.32,0,0,1,2.37,6.32V44.59a1.27,1.27,0,0,1-1.27,1.27h-2.44a1.27,1.27,0,0,1-1.27-1.27V44l.13-1.56h-.08a7.85,7.85,0,0,1-2.83,2.81,7.65,7.65,0,0,1-4,1.08,7.38,7.38,0,0,1-5-1.8A5.91,5.91,0,0,1,138.55,39.9Zm5.32-.46a2.69,2.69,0,0,0,.87,2,3.27,3.27,0,0,0,2.39.84,4.32,4.32,0,0,0,3.55-1.77,6.15,6.15,0,0,0,1.39-3.89V36h-.93Q143.88,36,143.88,39.44Z"/><path class="cls-2" d="M55.79,44.45V17a1.26,1.26,0,0,1,1.26-1.26h2.84A1.26,1.26,0,0,1,61.15,17v8.07L61,26.87h.08a6.65,6.65,0,0,1,2.73-2.32,8.42,8.42,0,0,1,3.78-.89,8.58,8.58,0,0,1,7,3.13,12.34,12.34,0,0,1,2.6,8.15,11.83,11.83,0,0,1-2.77,8.18,9.1,9.1,0,0,1-7.12,3.11,8.21,8.21,0,0,1-3.72-.89,7,7,0,0,1-2.79-2.45h-.08a10.34,10.34,0,0,1,.08,1.44v.13a1.26,1.26,0,0,1-1.26,1.26H57.05A1.26,1.26,0,0,1,55.79,44.45Zm6.15-9.38a7.77,7.77,0,0,0,1.42,4.67,4.59,4.59,0,0,0,4,2,4.88,4.88,0,0,0,3.87-1.8A7.24,7.24,0,0,0,72.71,35a7.64,7.64,0,0,0-1.48-4.9,4.69,4.69,0,0,0-3.85-1.86A5,5,0,0,0,63.5,30,7.32,7.32,0,0,0,61.93,35.06Z"/><rect class="cls-3" x="3.34" y="10.45" width="43.81" height="30.19" rx="5.88" ry="5.88" transform="translate(-10.64 24.1) rotate(-43.04)"/><rect class="cls-4" x="0.23" y="18.11" width="43.75" height="8.07" transform="translate(-9.16 21.05) rotate(-43.04)"/><path class="cls-5" d="M28.7,22.34a2,2,0,0,0-2.26-1A16.72,16.72,0,0,0,13.32,45a1.11,1.11,0,0,0,1.17.78H28.21v-.89a2.65,2.65,0,0,0-2.65-2.65H23.73a11.69,11.69,0,0,0,3.46-4c1.29-2.6.28-5.41,2.66-6.94,1.38-.9,2.6-.82,4.16-1.67C30.27,28.25,30.9,25.55,28.7,22.34Z"/><path class="cls-6" d="M14.19,45.78c-1.82-6.15-.84-14.43,1.8-20.15,3.31-7.18,1.42-14.72-3.47-20.5A13.89,13.89,0,0,0,3.32,0C5.74,6.86,4.56,14.64,1.69,20.93q-.16.34-.29.68a19.22,19.22,0,0,0,.78,16.1c2.28,4.21,6.8,7.15,12,8.06Z"/><path class="cls-7" d="M27.84,9.46a2.63,2.63,0,0,0-.24.33c-.11.23-.22.47-.3.71a12.6,12.6,0,0,0,0,9.28c1.42,3.48.81,3.15,4.92,2.31A16.77,16.77,0,0,0,39.91,18a17.52,17.52,0,0,0-8-5.16C30,12.19,28.77,12,28.15,10,28.13,9.81,28,9.67,27.84,9.46Z"/><circle class="cls-8" cx="31.03" cy="16.02" r="1.01"/></g></g></svg>