<svg xmlns="http://www.w3.org/2000/svg" xmlns:xlink="http://www.w3.org/1999/xlink" version="1.1" id="Слой_1" x="0px" y="0px" viewBox="0 0 789 155" xml:space="preserve">
<g>
<path class="st0" fill="#006d38" d="M66.6,23.4h13.7c16.5,0,29.9,13.5,29.9,29.9v15.3H96.5c-16.5,0-29.9-13.5-29.9-29.9V23.4z"></path>
<path class="st0" fill="#006d38" d="M188.6,8.9v18.8c0,22.5-18.4,40.9-40.9,40.9h-20.9V49.8c0-22.5,18.4-40.9,40.9-40.9   C167.7,8.9,188.6,8.9,188.6,8.9z"></path>
<path class="st1" fill="#a6ce39" d="M215.2,135.5h-50.8c-20.9,0-38-17.1-38-38v-9.8h23.3c31.1,0,56.5-25.4,56.5-56.5V8.3h9c20.9,0,38,17.1,38,38   v51.3C253.2,118.4,236.1,135.5,215.2,135.5L215.2,135.5z"></path>
<path class="st1" fill="#a6ce39" d="M662.1,102.1l16.4,30.5c0.2,0.2,0.2,0.5,0.2,0.8c0,0.9-0.4,1.3-1.3,1.3h-12.7c-0.5,0-0.8-0.2-1.1-0.4   c-0.2-0.3-1.1-1.9-2.7-4.7l-13.4-24.8h-1.4c-1.9,0-5-0.1-9.3-0.4v28.3c0,0.6-0.2,1.1-0.6,1.5c-0.4,0.4-0.9,0.6-1.4,0.6h-10.4   c-0.6,0-1.1-0.2-1.5-0.6c-0.4-0.4-0.6-0.9-0.6-1.5V60.8c0-1.1,0.4-2,1.2-2.5s3.6-1,8.4-1.4c4.8-0.4,9.5-0.6,14.2-0.6   c9.7,0,17.1,2,22.3,6s7.8,9.9,7.8,17.6v0.9C676.1,91.3,671.4,98.4,662.1,102.1L662.1,102.1z M661.8,80.8v-0.9   c0-3.9-1.3-6.7-3.9-8.5c-2.6-1.8-6.5-2.7-11.8-2.7c-3.3,0-6.4,0.1-9.3,0.4v23.5c3.9,0.2,7,0.3,9.3,0.3c5.7,0,9.8-0.9,12.2-2.8   C660.6,88.3,661.8,85.2,661.8,80.8L661.8,80.8z M743.4,106c0,19.7-9.6,29.5-28.7,29.5c-19.2,0-28.8-9.8-28.8-29.5V59.1   c0-0.5,0.2-1,0.6-1.4c0.4-0.4,0.9-0.6,1.5-0.6h10.4c0.6,0,1.1,0.2,1.5,0.6s0.6,0.9,0.6,1.4V106c0,6.2,1,10.7,3,13.4   s5.8,4.1,11.2,4.1c5.1,0,8.7-1.2,10.9-3.7s3.3-7.1,3.3-13.8V59.1c0-0.5,0.2-1,0.6-1.4c0.4-0.4,0.9-0.6,1.5-0.6h10.4   c0.6,0,1.1,0.2,1.5,0.6s0.6,0.9,0.6,1.4L743.4,106L743.4,106z M607.6,132.6c0,0.6-0.2,1.1-0.6,1.5c-0.4,0.4-0.9,0.6-1.5,0.6h-9.3   c-0.6,0-1.1-0.2-1.5-0.6c-0.4-0.4-0.6-0.9-0.6-1.5v-11.8c0-0.6,0.2-1,0.6-1.4c0.4-0.4,0.9-0.6,1.5-0.6h9.3c0.6,0,1.1,0.2,1.5,0.6   s0.6,0.9,0.6,1.4V132.6z"></path>
<path class="st2" d="M352.7,57.1c1.3,0,1.9,0.6,1.9,1.8c0,0.1,0,0.3-0.1,0.5l-17.1,65.5c-1.8,7.1-6.6,10.7-14.5,10.7   c-7.8,0-12.7-3.6-14.5-10.7l-17.2-66c0-1.2,0.6-1.8,1.9-1.8h11.1c1,0,1.7,0.6,2,1.8l15.1,62.8c0.3,1.1,0.8,1.7,1.7,1.7   c0.9,0,1.4-0.6,1.7-1.7l15.1-62.8c0.3-1.2,0.9-1.8,2-1.8H352.7z M379.4,132.6c0,0.6-0.2,1.1-0.6,1.5s-0.9,0.6-1.5,0.6H367   c-0.6,0-1.1-0.2-1.5-0.6c-0.4-0.4-0.6-0.9-0.6-1.5V59c0-0.5,0.2-1,0.6-1.4s0.9-0.6,1.5-0.6h10.3c0.6,0,1.1,0.2,1.5,0.6   s0.6,0.9,0.6,1.4V132.6z M451.4,57.1c1.3,0,1.9,0.6,1.9,1.8c0,0.1,0,0.3-0.1,0.5l-17.1,65.5c-1.8,7.1-6.6,10.7-14.5,10.7   c-7.8,0-12.7-3.6-14.5-10.7l-17.2-66c0-1.2,0.6-1.8,1.9-1.8h11.1c1,0,1.7,0.6,2,1.8l15.1,62.8c0.3,1.1,0.8,1.7,1.7,1.7   c0.9,0,1.4-0.6,1.7-1.7l15.1-62.8c0.3-1.2,0.9-1.8,2-1.8H451.4z M520.6,106c0,19.7-9.6,29.5-28.7,29.5c-19.2,0-28.8-9.8-28.8-29.5   V59.1c0-0.5,0.2-1,0.6-1.4s0.9-0.6,1.5-0.6h10.4c0.6,0,1.1,0.2,1.5,0.6s0.6,0.9,0.6,1.4V106c0,6.2,1,10.7,3,13.4s5.8,4.1,11.2,4.1   c5.1,0,8.7-1.2,10.9-3.7c2.2-2.5,3.3-7.1,3.3-13.8V59.1c0-0.5,0.2-1,0.6-1.4s0.9-0.6,1.5-0.6h10.4c0.6,0,1.1,0.2,1.5,0.6   s0.6,0.9,0.6,1.4L520.6,106L520.6,106z M576,69.7c-7.6-0.7-14.5-1-20.6-1c-7.3,0-11,2.5-11,7.4c0,2,0.7,3.7,2.1,4.9   c1.4,1.3,3,2.5,4.9,3.5l14.1,7.8c5,2.8,8.7,5.8,11,9.1s3.5,7.4,3.5,12.2c0,4.3-1,8.1-3.1,11.5c-2.1,3.3-5.2,5.9-9.3,7.7   s-9.1,2.6-15,2.6c-4.8,0-9.2-0.3-13.2-0.9c-4-0.6-6.2-1.1-6.6-1.6c-0.5-0.5-0.7-1-0.7-1.5v-7.5c0-0.6,0.2-1,0.6-1.4   c0.4-0.4,0.9-0.6,1.4-0.6h0.2c2,0.2,5,0.5,9.2,0.7s7.3,0.4,9.3,0.4c4.2,0,7.2-0.7,9.2-2.1s2.9-3.9,2.9-7.3c0-2.2-0.7-4-2.1-5.4   c-1.4-1.4-3-2.6-4.8-3.7l-15.8-9.4c-4.3-2.5-7.4-5.2-9.4-8.2s-3-6.6-3-10.9c0-13.2,8.7-19.9,26.1-19.9c3.7,0,7.9,0.3,12.7,0.8   s7.5,1,8.2,1.4s1,1,1,1.7v7.7C577.8,69,577.2,69.6,576,69.7L576,69.7L576,69.7L576,69.7z"></path>
</g>
</svg>
