<svg xmlns="http://www.w3.org/2000/svg" width="60" height="60" viewBox="0 0 60 60"><g><g><g/><g><path fill="#4892f3" d="M57.427 21.79c1.411 1.026 2.22 2.578 2.22 4.258V54.55a5.346 5.346 0 0 1-5.34 5.34H5.69a5.346 5.346 0 0 1-5.34-5.34V26.048c0-1.566.688-3.05 1.886-4.068.227-.192.46-.381.687-.563.136-.111.274-.221.409-.332l6.398-5.238V2.797A2.911 2.911 0 0 1 12.64-.11h28.267c2.067 0 2.592.494 3.684 1.71l.4.442 2.63 2.857c1.768 1.917 1.841 2.627 1.841 5.04v5.885zm-7.965-3.753v11.771l8.373-4.28c-.139-.913-.641-1.719-1.453-2.308a.147.147 0 0 0-.011-.007zM41.79 1.7l-.005 4.991c0 .629.51 1.141 1.138 1.141h4.607c-.167-.53-.51-.972-1.213-1.733l-2.63-2.857c-.152-.166-.288-.319-.414-.46-.671-.747-.899-1-1.483-1.082zm-29.15-.039c-.628 0-1.14.51-1.14 1.135v27.505l11.488 5.873.01.004 1.76.9.306.15c5.037 2.48 5.037 2.48 10.171-.146l1.586-.81a.834.834 0 0 1 .065-.034l10.805-5.524V9.939v-.336h-4.768a2.915 2.915 0 0 1-2.91-2.913l.006-5.029zM2.16 25.527l7.57 3.87v-11.26l-5.275 4.317c-.137.113-.279.227-.42.341-.217.176-.443.358-.652.535a3.569 3.569 0 0 0-1.222 2.197zm3.53 32.591h48.617a3.55 3.55 0 0 0 2.068-.662l-9.789-9.81a.886.886 0 0 1 1.254-1.25l9.682 9.702c.227-.468.354-.994.354-1.548V27.495l-19.133 9.782 6.382 6.4a.886.886 0 0 1-1.255 1.25l-6.784-6.802-1.045.534c-2.896 1.48-4.436 2.179-6.038 2.179-1.617 0-3.074-.718-5.72-2.02l-.312-.153-.012-.006-1.205-.616-6.977 6.992a.883.883 0 0 1-1.252.002.885.885 0 0 1-.001-1.253l6.573-6.588-18.976-9.7V54.55c0 .49.1.956.279 1.382l9.39-9.41a.885.885 0 0 1 1.255 1.252l-9.56 9.579c.607.479 1.373.766 2.205.766z"/></g><g><path fill="#4892f3" d="M27.016 17.501h13.042a.886.886 0 1 0 0-1.771H27.015a.885.885 0 1 0 0 1.771z"/></g><g><path fill="#4892f3" d="M27.016 13.871h16.768a.885.885 0 1 0 0-1.771H27.016a.886.886 0 1 0 0 1.771z"/></g><g><path fill="#4892f3" d="M15.752 15.9l1.675 1.514a.887.887 0 0 0 1.252-.065l4.063-4.522a.886.886 0 1 0-1.318-1.183l-3.468 3.86-1.017-.918a.885.885 0 1 0-1.187 1.314z"/></g><g><path fill="#4892f3" d="M27.016 25.792h13.042a.886.886 0 0 0 0-1.772H27.015a.886.886 0 1 0 0 1.772z"/></g><g><path fill="#4892f3" d="M27.016 22.161h16.768a.885.885 0 1 0 0-1.771H27.016a.886.886 0 1 0 0 1.771z"/></g><g><path fill="#4892f3" d="M15.752 24.194l1.676 1.51a.885.885 0 0 0 .593.228h.046a.885.885 0 0 0 .612-.293l4.062-4.522a.885.885 0 1 0-1.317-1.183l-3.47 3.86-1.016-.916a.886.886 0 0 0-1.186 1.316z"/></g></g></g></svg>