<svg xmlns="http://www.w3.org/2000/svg" width="43" height="60" viewBox="0 0 43 60"><g><g><g/><g><path fill="#4892f3" d="M41.94 53.232a.879.879 0 0 0 .88-.88V12.488a2.64 2.64 0 0 0-2.638-2.637h-.879V7.507a2.64 2.64 0 0 0-2.636-2.637h-3.883a.879.879 0 0 0 0 1.758h3.883a.88.88 0 0 1 .879.879v44.765a.88.88 0 0 1-.88.88H2.917a.88.88 0 0 1-.878-.88v-3.574a.879.879 0 0 0-1.758 0v3.574a2.64 2.64 0 0 0 2.637 2.637h.879v2.344a2.64 2.64 0 0 0 2.636 2.637h33.75a2.64 2.64 0 0 0 2.637-2.637V56.13a.879.879 0 0 0-1.758 0v1.123a.88.88 0 0 1-.879.879H6.432a.88.88 0 0 1-.879-.88V54.91h31.114a2.64 2.64 0 0 0 2.636-2.637V11.608h.88a.88.88 0 0 1 .878.88v39.865c0 .485.394.879.88.879z"/></g><g><path fill="#4892f3" d="M.28 44.848V7.508A2.64 2.64 0 0 1 2.917 4.87h1.867a2.62 2.62 0 0 1 2.349-1.464h.664V2.243A2.356 2.356 0 0 1 10.15-.11h2.208a2.356 2.356 0 0 1 2.353 2.353v1.163h.664a2.62 2.62 0 0 1 2.35 1.464h11.287a.879.879 0 0 1 0 1.758h-11.02V9.58a1.68 1.68 0 0 1-1.678 1.678H6.194A1.68 1.68 0 0 1 4.516 9.58V6.63h-1.6a.88.88 0 0 0-.878.878v37.34a.879.879 0 0 1-1.758 0zM9.555 2.243v1.163h3.398V2.243a.596.596 0 0 0-.595-.595H10.15a.596.596 0 0 0-.595.595zm-2.422 2.92a.86.86 0 0 0-.86.86v3.476h9.961V6.023a.86.86 0 0 0-.859-.86z"/></g><g><path fill="#4892f3" d="M32.511 19.46H18.45a.879.879 0 0 0 0 1.758H32.51a.879.879 0 0 0 0-1.758z"/></g><g><path fill="#4892f3" d="M32.511 23.21H18.45a.879.879 0 0 0 0 1.758H32.51a.879.879 0 0 0 0-1.758z"/></g><g><path fill="#4892f3" d="M32.511 30.83H18.45a.879.879 0 0 0 0 1.758H32.51a.879.879 0 0 0 0-1.758z"/></g><g><path fill="#4892f3" d="M32.511 34.58H18.45a.879.879 0 0 0 0 1.758H32.51a.879.879 0 0 0 0-1.758z"/></g><g><path fill="#4892f3" d="M32.511 42.2H18.45a.879.879 0 0 0 0 1.758H32.51a.879.879 0 0 0 0-1.758z"/></g><g><path fill="#4892f3" d="M32.511 45.95H18.45a.879.879 0 0 0 0 1.758H32.51a.879.879 0 0 0 0-1.758z"/></g><g><path fill="#4892f3" d="M16.79 19.428l-1.8 1.537v4.532a1.35 1.35 0 0 1-1.349 1.348H7.548A1.35 1.35 0 0 1 6.2 25.497v-6.094a1.35 1.35 0 0 1 1.348-1.347h6.093c.52 0 .971.296 1.196.728l.812-.693a.879.879 0 1 1 1.141 1.337zm-3.559 5.66v-2.623l-1.245 1.064a.876.876 0 0 1-1.217-.072l-1.406-1.524a.879.879 0 0 1 1.292-1.192l.832.902 1.744-1.489v-.34H7.958v5.273z"/></g><g><path fill="#4892f3" d="M16.79 30.877l-1.8 1.538v4.45a1.35 1.35 0 0 1-1.349 1.348H7.548A1.35 1.35 0 0 1 6.2 36.865v-6.094a1.35 1.35 0 0 1 1.348-1.347h6.093c.543 0 1.01.323 1.224.786l.784-.67a.879.879 0 1 1 1.141 1.337zm-3.559 5.578v-2.54l-1.245 1.064a.876.876 0 0 1-1.217-.072l-1.406-1.524a.879.879 0 0 1 1.292-1.192l.832.902 1.744-1.489v-.422H7.958v5.273z"/></g><g><path fill="#4892f3" d="M15.649 41.118a.879.879 0 1 1 1.141 1.337l-1.8 1.537v4.24a1.35 1.35 0 0 1-1.349 1.347H7.548A1.35 1.35 0 0 1 6.2 48.231v-6.093a1.35 1.35 0 0 1 1.348-1.348h6.093a1.35 1.35 0 0 1 1.286.944zM13.23 47.82v-2.328l-1.245 1.063a.876.876 0 0 1-1.217-.072L9.363 44.96a.879.879 0 0 1 1.292-1.192l.832.902 1.744-1.489v-.633H7.958v5.273z"/></g></g></g></svg>