<svg xmlns="http://www.w3.org/2000/svg" width="61" height="60" viewBox="0 0 61 60"><g><g><g/><g><g><g><path fill="#4892f3" d="M51.72 47.012a1.183 1.183 0 0 0-1.276-.253 1.158 1.158 0 0 0-.634.634 1.184 1.184 0 0 0-.067.677 1.183 1.183 0 0 0 .498.746 1.156 1.156 0 0 0 .422.174 1.178 1.178 0 0 0 1.057-.32c.218-.219.344-.52.344-.83 0-.308-.126-.61-.344-.828z"/></g></g></g><g><g><g><path fill="#4892f3" d="M47.425 33.873c0 5.873-4.779 10.652-10.652 10.652-5.874 0-10.653-4.779-10.653-10.652 0-5.874 4.779-10.653 10.652-10.653 5.874 0 10.653 4.779 10.653 10.653zm-2.344 0c0-4.582-3.727-8.31-8.309-8.31-4.581 0-8.308 3.728-8.308 8.31 0 4.58 3.727 8.308 8.309 8.308 4.58 0 8.308-3.727 8.308-8.309z"/></g></g></g><g><g><g><path fill="#4892f3" d="M37.46 32.92c1.31.493 2.834 1.175 2.834 3.135 0 1.8-1.15 2.888-2.834 3.164v.42c0 .204-.274.392-.547.392-.316 0-.547-.188-.547-.391v-.363c-1.726-.058-3.136-.958-3.136-1.887 0-.493.432-1.219.978-1.219.605 0 1.094.856 2.158 1.045v-2.351c-1.323-.508-2.877-1.133-2.877-2.99 0-1.844 1.352-2.729 2.877-2.947v-.406c0-.203.23-.392.547-.392.274 0 .547.189.547.392v.363c.892.029 2.575.26 2.575 1.262 0 .392-.259 1.19-.892 1.19-.475 0-.748-.464-1.683-.537zm-.95-2.076c-.647.131-.92.465-.92.813 0 .421.374.682.92.915zm.806 6.358c.49-.117.878-.392.878-.915 0-.479-.36-.784-.878-1.03z"/></g></g></g><g><g><g><path fill="#4892f3" d="M56.713 46.863c2.164.663 3.737 2.699 3.737 5.036a5.271 5.271 0 0 1-5.265 5.265H25.338v1.554c0 .647-.524 1.172-1.172 1.172h-20.2a1.172 1.172 0 0 1-1.172-1.172v-5.296H1.622A1.172 1.172 0 0 1 .45 52.25V45.78c0-.647.525-1.172 1.172-1.172h1.172v-4.125H1.622A1.172 1.172 0 0 1 .45 39.313v-6.47c0-.646.525-1.17 1.172-1.17h15.574a23.007 23.007 0 0 1 3.93-9.419 22.338 22.338 0 0 1 5.483-5.44 3.38 3.38 0 0 1-1.359-2.71 3.387 3.387 0 0 1 3.383-3.383h1.208l-4.995-9.095A1.172 1.172 0 0 1 25.874-.11h8.172c.377 0 .732.182.952.489l2.02 2.814L40.936.138c.206-.16.46-.248.721-.248h6.024a1.172 1.172 0 0 1 1.027 1.736l-4.994 9.095h1.207a3.38 3.38 0 1 1 2.01 6.102c2.465 1.735 4.651 4.083 6.319 6.818 2.233 3.663 3.463 7.9 3.463 11.928zM32.514 10.72h8.526l4.66-8.487h-3.64l-4.562 3.558a1.172 1.172 0 0 1-1.673-.241l-2.38-3.317h-5.59zm-3.88 2.344a1.04 1.04 0 0 0 0 2.079H44.92a1.04 1.04 0 0 0 0-2.079zM20.65 38.141v-4.125H2.794v4.125zM5.138 40.484v4.125h17.856v-4.125zM20.65 51.078v-4.125H2.794v4.125zm2.344 6.468v-4.125H5.138v4.125zm32.19-2.725c1.612 0 2.922-1.31 2.922-2.922 0-1.502-1.17-2.78-2.665-2.91a1.172 1.172 0 0 1-1.071-1.167V35.57c0-7.305-4.551-14.862-10.856-18.082H30.04c-5.29 2.694-9.302 8.161-10.462 14.185h2.244c.648 0 1.172.525 1.172 1.172v5.297h1.172c.648 0 1.172.524 1.172 1.172v6.468c0 .354-.157.671-.405.886h21.332a1.172 1.172 0 0 1 0 2.344h-23.27v2.067h1.171c.647 0 1.172.524 1.172 1.172v2.57z"/></g></g></g></g></g></svg>