<svg xmlns="http://www.w3.org/2000/svg" width="70" height="71" viewBox="0 0 70 71"><g><g><g/><g><path fill="#4892f3" d="M68.833 42.34c.645 0 1.167.522 1.167 1.167v21c0 .644-.522 1.166-1.167 1.166h-6.65l-6.702 4.471a1.17 1.17 0 0 1-.648.196H35a4.666 4.666 0 0 1-3.575-7.665 4.702 4.702 0 0 1-1.361-1.255 43.662 43.662 0 0 1-5.042 2.97 1.166 1.166 0 0 1-1.043 0A43.093 43.093 0 0 1 .24 29.936c-.013-.13-.029-.255-.04-.388-.07-.778-.115-1.561-.144-2.349C.036 26.661 0 26.127 0 25.586V8.506c0-.515.338-.969.832-1.117l23.333-7c.219-.065.451-.065.67 0l23.333 7c.494.148.832.602.832 1.118v17.079c0 .16-.008.32-.008.48a5.237 5.237 0 0 1 4.675 5.19v3.86l2.048 5.124 6.309 2.1zm-25.25-5.732a5.823 5.823 0 0 1-.416-2.167v-3.184a5.242 5.242 0 0 1 3.487-4.923c.005-.25.013-.499.013-.748v-1.51l-4.675 1.401a30.249 30.249 0 0 1-3.827 14.53h6.778zM31.5 40.007h3.944a27.913 27.913 0 0 0 4.19-13.822l-28.631 8.59a27.895 27.895 0 0 0 11.19 14.028l2.307 1.483 2.312-1.48c.447-.29.872-.617 1.305-.932a4.644 4.644 0 0 1-1.284-3.2 4.667 4.667 0 0 1 4.667-4.667zM3.362 34.636l4.703-1.412a29.38 29.38 0 0 1-.49-2.084l-4.637 1.387.029.173c.114.627.241 1.266.395 1.935zm-.933-6.622c.035.65.089 1.26.148 1.861.012.106.021.21.033.314l4.604-1.381a30.324 30.324 0 0 1-.17-2.18zm37.238-13.961L24.54 9.733l-15.207 5.43v8.342l30.334-9.1zM9.354 25.936c.02.734.065 1.464.138 2.188l30.175-9.052v-2.23zM42 20.808v2.23l4.667-1.4v-2.23zm4.667-6.066L42 16.142v2.23l4.667-1.4zM9.819 30.462c.131.705.296 1.4.48 2.087l29.368-8.81v-2.23l-10.864 3.259zm-7.486-4.856L7 24.206V14.34c0-.493.31-.933.775-1.099l16.333-5.833c.23-.083.48-.09.713-.022l16.333 4.666c.5.143.846.6.846 1.121v.532l4.667-1.4v-2.93L24.5 2.725 2.333 9.375zM29.2 59.159a4.605 4.605 0 0 1-.032-.485c0-1.099.387-2.162 1.095-3.002a4.612 4.612 0 0 1-2.162-4.926l-.03.02-2.939 1.889a1.167 1.167 0 0 1-1.262 0l-2.94-1.889A30.208 30.208 0 0 1 8.766 35.445l-4.861 1.458A40.788 40.788 0 0 0 24.5 62.031a41.068 41.068 0 0 0 4.7-2.872zm31.468 4.724V44.347l-6.202-2.067a1.177 1.177 0 0 1-.716-.673l-2.333-5.834a1.192 1.192 0 0 1-.083-.434v-4.083a2.916 2.916 0 1 0-5.833 0v3.184c0 .446.084.887.25 1.3l2 4.998a1.165 1.165 0 0 1-1.083 1.601H31.5a2.333 2.333 0 0 0 0 4.667h1.167a1.167 1.167 0 0 1 0 2.333 2.334 2.334 0 0 0 0 4.667h1.166a1.167 1.167 0 0 1 0 2.333 2.334 2.334 0 0 0 0 4.667h.874c.627 0 1.142.494 1.167 1.12.027.63-.44 1.173-1.068 1.238a2.311 2.311 0 0 0-2.14 2.308A2.333 2.333 0 0 0 35 68.007h19.484zm7-19.21H63V63.34h4.667z"/></g><g><path fill="#4892f3" d="M61.385 15.32l-1.595 1.704c.533.498 1.033 1.03 1.5 1.59l1.794-1.491a19.846 19.846 0 0 0-1.699-1.803z"/></g><g><path fill="#4892f3" d="M67.664 29.8c0-.458-.015-.911-.046-1.36l-2.328.158a18.211 18.211 0 0 1 .013 2.186l2.333.134c.02-.37.028-.744.028-1.119z"/></g><g><path fill="#4892f3" d="M59.477 13.75a19.809 19.809 0 0 0-2.091-1.33l-1.126 2.043c.639.35 1.254.74 1.845 1.166z"/></g><g><path fill="#4892f3" d="M67.341 33.378l-2.296-.418a17.24 17.24 0 0 1-.525 2.12l2.223.7c.25-.787.45-1.59.598-2.402z"/></g><g><path fill="#4892f3" d="M55.151 11.357a19.564 19.564 0 0 0-2.358-.767l-.583 2.26c.706.182 1.4.408 2.08.677z"/></g><g><path fill="#4892f3" d="M63.15 38.28l2.042 1.131c.233-.428.466-.866.666-1.316l-2.119-.975c-.179.394-.375.781-.589 1.16z"/></g><g><path fill="#4892f3" d="M62.59 20.388c.392.613.746 1.25 1.06 1.908l2.106-1a19.713 19.713 0 0 0-1.201-2.166z"/></g><g><path fill="#4892f3" d="M64.46 24.32c.227.692.411 1.398.55 2.113l2.29-.444a19.58 19.58 0 0 0-.625-2.399z"/></g><g><path fill="#4892f3" d="M52.488 22.593a7.413 7.413 0 0 1 4.683 6.916h2.333a9.734 9.734 0 0 0-6.15-9.083l-.416-.166-.868 2.165z"/></g></g></g></svg>