<svg xmlns="http://www.w3.org/2000/svg" width="66" height="66" viewBox="0 0 66 66"><g><g><g/><g><g><path fill="#4892f3" d="M54.877 6.464a3.281 3.281 0 0 1 2.188 3.095v.996a3.262 3.262 0 0 1-1.313 2.625 3.308 3.308 0 0 1-2.898.525L37.224 9.1h-8.312l-5.906 3.281h8.903a3.291 3.291 0 0 1 3.281 3.282v.546a3.297 3.297 0 0 1-2.352 3.15l-17.03 5.01a.944.944 0 0 1-.305.044H8.94V26.6a1.094 1.094 0 0 1-1.094 1.094H1.284A1.094 1.094 0 0 1 .19 26.6V2.538a1.094 1.094 0 0 1 1.094-1.094h6.562A1.094 1.094 0 0 1 8.94 2.538v1.76L20.621.405c.114-.034.232-.053.35-.055h16.407c.123 0 .245.022.36.066zM6.752 3.631H2.377v21.875h4.375zM54.877 9.56a1.093 1.093 0 0 0-.732-1.039L37.192 2.538H21.146L8.94 6.606v15.619h6.41l16.865-4.966a1.102 1.102 0 0 0 .788-1.05v-.547a1.093 1.093 0 0 0-1.094-1.093H18.784a1.094 1.094 0 0 1-.536-2.046l9.844-5.468c.162-.096.347-.145.536-.142h8.75a.943.943 0 0 1 .306.043l15.794 4.649a1.094 1.094 0 0 0 1.4-1.05z"/></g><g><path fill="#4892f3" d="M64.721 38.63a1.094 1.094 0 0 1 1.094 1.094v24.062a1.094 1.094 0 0 1-1.094 1.094H58.16a1.093 1.093 0 0 1-1.094-1.094v-1.76l-11.681 3.893a1.298 1.298 0 0 1-.35.055H28.627c-.123 0-.245-.022-.36-.066l-17.14-6.048a3.281 3.281 0 0 1-2.187-3.096v-.995a3.264 3.264 0 0 1 1.313-2.625 3.308 3.308 0 0 1 2.898-.525l15.63 4.605h8.312L43 53.942h-8.903a3.291 3.291 0 0 1-3.281-3.28v-.548a3.298 3.298 0 0 1 2.352-3.15l17.03-5.009a.943.943 0 0 1 .306-.044h6.562v-2.187a1.093 1.093 0 0 1 1.094-1.094zm-7.656 5.469h-6.41L33.79 49.064a1.103 1.103 0 0 0-.788 1.05v.547a1.093 1.093 0 0 0 1.094 1.094h13.125a1.094 1.094 0 0 1 .536 2.045l-9.844 5.47a1.036 1.036 0 0 1-.535.141h-8.75a.943.943 0 0 1-.307-.043l-15.793-4.649a1.093 1.093 0 0 0-1.4 1.05v.995a1.094 1.094 0 0 0 .732 1.04l16.953 5.982H44.86l12.206-4.069zm6.563-3.281h-4.376v21.875h4.375z"/></g><g><path fill="#4892f3" d="M43.11 25.233a6.563 6.563 0 0 1 1.922 4.64v1.094c0 8.236-11.068 13.869-11.539 14.098a1.066 1.066 0 0 1-.984 0c-.47-.23-11.539-5.862-11.539-14.098v-1.094a6.563 6.563 0 0 1 6.563-6.562A6.134 6.134 0 0 1 33 26.504a6.134 6.134 0 0 1 5.469-3.193c1.74 0 3.41.691 4.64 1.922zm-.265 4.64a4.375 4.375 0 0 0-4.375-4.375c-2.614 0-4.375 2.199-4.375 5.469a1.093 1.093 0 1 1-2.188 0c0-3.27-1.76-5.469-4.375-5.469a4.375 4.375 0 0 0-4.375 4.375v1.094c0 6.004 7.788 10.74 9.844 11.889 2.056-1.149 9.844-5.885 9.844-11.89z"/></g><g><path fill="#4892f3" d="M47.22 32.06h2.188v2.188H47.22z"/></g><g><path fill="#4892f3" d="M51.59 32.06h6.563v2.188H51.59z"/></g><g><path fill="#4892f3" d="M42.275 22.332l1.547-1.547 1.546 1.547-1.546 1.547z"/></g><g><path fill="#4892f3" d="M45.367 19.24l4.64-4.64 1.547 1.547-4.64 4.64z"/></g><g><path fill="#4892f3" d="M16.59 32.06h2.188v2.188H16.59z"/></g><g><path fill="#4892f3" d="M7.84 32.06h6.563v2.188H7.84z"/></g><g><path fill="#4892f3" d="M20.62 43.984l1.546-1.547 1.547 1.547-1.547 1.546z"/></g><g><path fill="#4892f3" d="M14.432 50.168l4.64-4.64 1.547 1.547-4.64 4.64z"/></g></g></g></g></svg>