<svg xmlns="http://www.w3.org/2000/svg" viewBox="0 0 32.91 49.64"><defs><style>.cls-1{fill:#665822;}</style></defs><g id="Слой_2" data-name="Слой 2"><g id="Слой_1-2" data-name="Слой 1"><path class="cls-1" d="M32.44,0H.47A.47.47,0,0,0,0,.47V49.16a.47.47,0,0,0,.47.48h13a.47.47,0,0,0,.47-.48V45.25a.5.5,0,0,0,0-.12l0-32.51a2.49,2.49,0,0,1,5,0l0,32.51a.49.49,0,0,0,0,.12v3.91a.48.48,0,0,0,.48.48h13a.47.47,0,0,0,.47-.48V.47A.47.47,0,0,0,32.44,0ZM32,25H28.34V23.27H32Zm-3.63.95H32v6.63H28.34ZM32,7.67a2.88,2.88,0,0,1-2.35-2.35H32Zm0-3.29H28.34V1H32ZM27.4,1V4.89H26.24V1ZM7.62,1H25.29V4.38H7.62Zm-1,0V4.89H5.52V1ZM4.57,1V4.38H1V1ZM1,25.93H4.57v6.63H1ZM4.57,25H1V23.27H4.57ZM1,5.32H3.29A2.87,2.87,0,0,1,1,7.67ZM13,48.69H1V45.6H13Zm3.48-39.5A3.44,3.44,0,0,0,13,12.62l0,32H1V33.5H5A.47.47,0,0,0,5.52,33V22.8A.47.47,0,0,0,5,22.33H1V8.63a3.83,3.83,0,0,0,3.3-3.31h.32v0A.47.47,0,0,0,5,5.84H7.15a.47.47,0,0,0,.47-.48v0H25.29v0a.48.48,0,0,0,.48.48h2.1a.47.47,0,0,0,.47-.48v0h.33A3.82,3.82,0,0,0,32,8.63v13.7h-4.1a.47.47,0,0,0-.47.47V33a.47.47,0,0,0,.47.47H32V44.65H19.91l0-32A3.44,3.44,0,0,0,16.46,9.19ZM32,48.69h-12V45.6H32Z"/><path class="cls-1" d="M16.46,1a1.61,1.61,0,1,0,1.6,1.61A1.61,1.61,0,0,0,16.46,1Zm0,2.26a.66.66,0,1,1,.65-.65A.65.65,0,0,1,16.46,3.3Z"/></g></g></svg>