<svg xmlns="http://www.w3.org/2000/svg" viewBox="0 0 58.84 47.33"><defs><style>.cls-1{fill:#665822;}</style></defs><g id="Слой_2" data-name="Слой 2"><g id="Слой_1-2" data-name="Слой 1"><path class="cls-1" d="M58.81,39.39,58,37.21A.55.55,0,0,0,58,37a.62.62,0,0,0-.1-.16L44.71.34s0-.05,0-.08A.49.49,0,0,0,44.25,0H14.6a.59.59,0,0,0-.23,0,.49.49,0,0,0-.24.27L0,39.36a.47.47,0,0,0,.28.6l8.93,3.22a.45.45,0,0,0,.36,0,.47.47,0,0,0,.24-.26l.85-2.36h0L14.15,31v15.9a.47.47,0,0,0,.47.47H44.25a.47.47,0,0,0,.47-.47V31.08L49,42.94a.47.47,0,0,0,.59.28L58.53,40A.47.47,0,0,0,58.81,39.39ZM27.85.93H31V2.46H27.85Zm-.93,0v2a.47.47,0,0,0,.46.47h4.08a.47.47,0,0,0,.46-.47v-2h6.73A7.55,7.55,0,0,1,31.13,8H27.71A7.57,7.57,0,0,1,20.18.93ZM9.12,42.15,1.06,39.24l.53-1.46,8.07,2.89Zm6-13.78v0l1.42-16.21a.47.47,0,0,0-.93-.09L14.17,28.17,10,39.8,1.91,36.9l13-36h4.35a8.49,8.49,0,0,0,8.46,8h5.47v1.64H27.71a.47.47,0,0,0-.47.47V46.4H15.09ZM28.18,11.51h2.48V46.4H28.18ZM44.69,28.26l0,0L43.26,12a.47.47,0,0,0-.93.09l1.42,16.21a.58.58,0,0,0,0,.14V46.4H31.6V11.51h2a.47.47,0,0,0,.47-.46V8.47a.17.17,0,0,0,0-.07A8.5,8.5,0,0,0,39.59.93h4.34l13,36-8.06,2.9Zm5,13.92-.54-1.49,8.06-2.9.53,1.48Z"/><path class="cls-1" d="M24.23,33.64a.47.47,0,0,0-.66,0l-6.42,6.42a.47.47,0,1,0,.66.66l6.42-6.42A.47.47,0,0,0,24.23,33.64Z"/><path class="cls-1" d="M35.27,33.64a.47.47,0,0,0-.66,0,.45.45,0,0,0,0,.66L41,40.72a.47.47,0,0,0,.33.14.51.51,0,0,0,.33-.14.47.47,0,0,0,0-.66Z"/><path class="cls-1" d="M32.08,10.43a.67.67,0,1,0-.66-.67A.67.67,0,0,0,32.08,10.43Z"/></g></g></svg>