<svg xmlns="http://www.w3.org/2000/svg" viewBox="0 0 62.87 40.34"><defs><style>.cls-1{fill:#665822;}</style></defs><g id="Слой_2" data-name="Слой 2"><g id="Слой_1-2" data-name="Слой 1"><path class="cls-1" d="M62.81,28,45.54.2a.41.41,0,0,0-.41-.2H17.7a.4.4,0,0,0-.37.2L.06,28a.45.45,0,0,0,0,.32.4.4,0,0,0,.19.25l6.51,4.05a.41.41,0,0,0,.57-.14l10-16.16v23.6a.42.42,0,0,0,.42.41H45.08a.41.41,0,0,0,.41-.41V16.23l10.1,16.26a.41.41,0,0,0,.57.14l6.51-4.05a.4.4,0,0,0,.19-.25A.51.51,0,0,0,62.81,28Zm-26-19.14,1,5.92-3.67,5.92V10.19l.89-1.75a.35.35,0,0,0,.05-.08l3.73-7.27,4.08,3.77L37,8.45A.4.4,0,0,0,36.84,8.87Zm-3.48,1.21V39.51H29.51V10.08a.37.37,0,0,0,0-.18l-.2-.39a5.12,5.12,0,0,0,4.33,0l-.2.39A.37.37,0,0,0,33.36,10.08ZM25.83,8.45l-5.9-3.59L24,1.09l3.74,7.27a.35.35,0,0,0,.05.08l.89,1.75V20.71L25,14.79l1-5.92A.4.4,0,0,0,25.83,8.45ZM34.4,8a4.26,4.26,0,0,1-5.93,0L24.8.83h4.49V2.61a.42.42,0,0,0,.42.42h3.45a.42.42,0,0,0,.42-.42V.83h4.49ZM32.75.83V2.2H30.12V.83ZM18.14,14.88V9.39a.42.42,0,0,0-.83,0v5.37L6.8,31.7,1,28.1,17.91.83h5.15L19,4.62a.42.42,0,0,0-.13.35.41.41,0,0,0,.2.31L25.16,9l-1,5.8a.38.38,0,0,0,.06.29l4.45,7.18V39.51H18.14ZM56.07,31.7l-10.57-17V9.39A.42.42,0,0,0,45.08,9a.41.41,0,0,0-.41.41V39.51H34.19V22.28l4.45-7.18a.38.38,0,0,0,.06-.29l-1-5.8,6.13-3.73A.41.41,0,0,0,44,5a.45.45,0,0,0-.13-.35L39.8.83h5.08A.27.27,0,0,0,45,.89L61.88,28.1Z"/><path class="cls-1" d="M26.34,29.15,24.8,27.62a.43.43,0,0,0-.58,0l-5,5a.42.42,0,0,0,0,.59l1.53,1.53a.4.4,0,0,0,.29.12.42.42,0,0,0,.3-.12l5-5A.42.42,0,0,0,26.34,29.15ZM21,33.86l-.94-1,4.41-4.41.95.95Z"/><path class="cls-1" d="M38.65,27.62a.43.43,0,0,0-.58,0l-1.54,1.53a.42.42,0,0,0,0,.59l5,5a.4.4,0,0,0,.29.12.42.42,0,0,0,.3-.12l1.53-1.53a.42.42,0,0,0,0-.59Zm3.17,6.24-4.41-4.41,1-.95,4.41,4.41Z"/></g></g></svg>