<svg xmlns="http://www.w3.org/2000/svg" viewBox="0 0 27.18 60.82"><defs><style>.cls-1{fill:#665822;}</style></defs><g id="Слой_2" data-name="Слой 2"><g id="Слой_1-2" data-name="Слой 1"><path class="cls-1" d="M26.72,56.22h-.37V37.62a.17.17,0,0,0,0-.07l-2-22.12V.47A.47.47,0,0,0,23.85,0H21.1a.47.47,0,0,0-.46.47V15H6.55V.47A.47.47,0,0,0,6.08,0H3.33a.47.47,0,0,0-.47.47v15l-2,22.17V56.22H.47a.46.46,0,0,0-.47.46v3.68a.47.47,0,0,0,.47.46H12.33a.47.47,0,0,0,.47-.46V56.68a.46.46,0,0,0-.47-.46H12l0-11.13a1.61,1.61,0,0,1,3.2,0l0,11.13h-.37a.46.46,0,0,0-.47.46v3.68a.47.47,0,0,0,.47.46H26.72a.46.46,0,0,0,.46-.46V56.68A.45.45,0,0,0,26.72,56.22ZM3.8,7.48V.93H5.62V7.48Zm.31,2.75H3.8V8.42H5.62v1.82H5.3a.75.75,0,0,0-.59-.29A.77.77,0,0,0,4.11,10.23Zm1.19.95h.32V15H3.8v-3.8h.31a.75.75,0,0,0,.6.3A.73.73,0,0,0,5.3,11.18Zm16.27-3.7V.93h1.82V7.48Zm.31,2.75h-.31V8.42h1.82v1.82h-.31a.77.77,0,0,0-1.2,0Zm1.2.95h.31V15H21.57v-3.8h.31a.75.75,0,0,0,1.2,0Zm-2,24.25H19.48a.47.47,0,0,0-.47.47v1.25H8.17V35.9a.47.47,0,0,0-.46-.47H6.12a.47.47,0,0,0-.46.47v1.25H1.79l2-21.25H23.41l2,21.25H21.53V35.9A.47.47,0,0,0,21.06,35.43ZM4.28,38.12A3,3,0,0,1,1.8,40.59h0V38.09H4.28Zm2.31.76V36.37h.65v2.51Zm13.35,0V36.37h.66v2.51Zm-8.88,6.21,0,11.13H1.77V41.54h0a3.93,3.93,0,0,0,3.43-3.43v0h.44v1.25a.47.47,0,0,0,.46.47H7.71a.47.47,0,0,0,.46-.47V38.09H19v1.25a.47.47,0,0,0,.47.47h1.58a.47.47,0,0,0,.47-.47V38.09H22v0a4,4,0,0,0,3.43,3.43h0V56.22H16.15l0-11.13a2.53,2.53,0,0,0-5.06,0Zm11.84-7h2.51V40.6h0a3,3,0,0,1-2.47-2.47Zm-11,19.06v2.74H.93V57.15Zm14.38,0v2.74H15.32V57.15Z"/><path class="cls-1" d="M22.5,30.56v-11a.47.47,0,0,0-.47-.47H5.15a.47.47,0,0,0-.46.47v11a.47.47,0,0,0,.46.47H22A.47.47,0,0,0,22.5,30.56ZM5.62,30.1V20h8.9V30.1Zm9.83-6.67V20h6.11v3.41Zm0,6.67V24.36h6.11V30.1Z"/></g></g></svg>