<svg xmlns="http://www.w3.org/2000/svg" viewBox="0 0 12.3 64.17"><defs><style>.cls-1{fill:#665822;}</style></defs><g id="Слой_2" data-name="Слой 2"><g id="Слой_1-2" data-name="Слой 1"><path class="cls-1" d="M10,60.3V57.15a.09.09,0,0,1,.1-.1h.23a.49.49,0,0,0,0-1h-.23A.1.1,0,0,1,10,56V37.05a.34.34,0,0,0,0-.1v0a.15.15,0,0,1,0-.09,6.14,6.14,0,0,0,0-9.5.12.12,0,0,1,0-.08v0a.38.38,0,0,0,0-.1v-19a.1.1,0,0,1,.1-.11h1a.49.49,0,0,0,0-1h-1A.09.09,0,0,1,10,7V3.87a3.87,3.87,0,0,0-7.74,0V7a.1.1,0,0,1-.1.1h-1a.49.49,0,0,0,0,1h1a.11.11,0,0,1,.1.11V27.25h0a.12.12,0,0,1,0,.08,6.14,6.14,0,0,0,0,9.5.15.15,0,0,1,0,.09V56a.11.11,0,0,1-.1.11H1.94a.49.49,0,0,0,0,1h.24a.1.1,0,0,1,.1.1V60.3a3.87,3.87,0,0,0,7.74,0ZM3.37,7.05A.1.1,0,0,1,3.26,7V3.87A2.89,2.89,0,1,1,9,3.87V7a.1.1,0,0,1-.11.1Zm0,19.53a.12.12,0,0,1-.1,0,.11.11,0,0,1-.05-.09V8.14A.11.11,0,0,1,3.37,8H8.93A.11.11,0,0,1,9,8.14V26.48a.11.11,0,0,1,0,.09.14.14,0,0,1-.11,0,6,6,0,0,0-2.73-.65A6.07,6.07,0,0,0,3.41,26.58ZM1,32.08a5.17,5.17,0,1,1,5.17,5.17A5.18,5.18,0,0,1,1,32.08Zm5.77,24A.11.11,0,0,1,6.64,56V53.51a.49.49,0,0,0-1,0V56a.11.11,0,0,1-.11.11H3.37A.11.11,0,0,1,3.26,56V37.68a.12.12,0,0,1,.05-.09.09.09,0,0,1,.1,0,6.06,6.06,0,0,0,2.74.64,6,6,0,0,0,2.73-.64.11.11,0,0,1,.11,0,.12.12,0,0,1,0,.09V56a.11.11,0,0,1-.11.11ZM3.26,60.3V57.15a.1.1,0,0,1,.11-.1H8.93a.1.1,0,0,1,.11.1V60.3a2.89,2.89,0,1,1-5.78,0Z"/><path class="cls-1" d="M6.8,11.12a.66.66,0,0,0-.65-.66.67.67,0,0,0-.66.66.66.66,0,0,0,.66.65A.65.65,0,0,0,6.8,11.12Z"/><path class="cls-1" d="M6.8,14.73a.66.66,0,0,0-.65-.66.67.67,0,0,0-.66.66.66.66,0,0,0,.66.65A.65.65,0,0,0,6.8,14.73Z"/><path class="cls-1" d="M6.78,18.5a.66.66,0,0,0-.47-.8.67.67,0,0,0-.8.48A.66.66,0,0,0,6,19,.64.64,0,0,0,6.78,18.5Z"/><path class="cls-1" d="M6.49,32.93l.07-.08h0l0,0,0,0s0,0,0,0v-.06s0-.07,0-.1V29.2a.49.49,0,0,0-1,0v3.13a.11.11,0,0,1,0,.08L4.06,34a.5.5,0,0,0-.14.35.48.48,0,0,0,.14.34.48.48,0,0,0,.7,0Z"/></g></g></svg>