<svg xmlns="http://www.w3.org/2000/svg" viewBox="0 0 29.32 33.5"><defs><style>.cls-1{fill:#665822;}</style></defs><g id="Слой_2" data-name="Слой 2"><g id="Слой_1-2" data-name="Слой 1"><path class="cls-1" d="M6.59,0a.54.54,0,0,0-.36.14C6,.4,0,6.41,0,9.94a22.16,22.16,0,0,0,.7,4.61A19.65,19.65,0,0,1,1.27,18c0,1.37-.12,4.4-.22,6.71a.45.45,0,0,0,0,.16c0,.1,0,.2,0,.28,0,1-.08,1.69-.08,1.72v0a7.48,7.48,0,0,0,1.42,4.62,5.15,5.15,0,0,0,4.22,2,5.16,5.16,0,0,0,4.23-2,7.48,7.48,0,0,0,1.42-4.62v-.08c0-.19,0-.81-.08-1.65,0-.09,0-.19,0-.29a.45.45,0,0,0,0-.16c-.11-2.31-.23-5.34-.22-6.71a15.79,15.79,0,0,1,.53-3.08,21.66,21.66,0,0,0,.74-5C13.17,6.4,7.21.4,7,.14A.51.51,0,0,0,6.59,0Zm0,32.49c-3.41,0-4.3-2.9-4.53-4.37a5.56,5.56,0,0,0,9.07,0C10.9,29.59,10,32.49,6.59,32.49Zm4.55-7.32a4.55,4.55,0,0,1-9.09,0c.09-2,.25-5.63.23-7.16a19.27,19.27,0,0,0-.59-3.68c-.22-1-.45-2.09-.58-3.06L6.59,7l5.51,4.25a27.86,27.86,0,0,1-.65,3.43A16.42,16.42,0,0,0,10.9,18C10.89,19.54,11.05,23.15,11.14,25.17ZM6.28,6,1,10.05V9.94c0-2.68,4.46-7.53,5.57-8.7,1.12,1.17,5.57,6,5.58,8.7v.11L6.91,6a.52.52,0,0,0-.32-.11A.51.51,0,0,0,6.28,6Z"/><path class="cls-1" d="M7.43,19.58H5.76a.51.51,0,0,0-.51.51v6.13a.51.51,0,0,0,.51.51H7.43a.51.51,0,0,0,.51-.51V20.09A.51.51,0,0,0,7.43,19.58Zm-.51,1v5.11H6.27V20.6Z"/><path class="cls-1" d="M28.63,14.55a22.8,22.8,0,0,0,.69-4.61c0-3.53-6-9.54-6.23-9.8a.53.53,0,0,0-.72,0c-.25.26-6.22,6.26-6.23,9.8a21.66,21.66,0,0,0,.74,5A15.69,15.69,0,0,1,17.4,18c0,1.37-.11,4.4-.21,6.71a.45.45,0,0,0,0,.16,2.44,2.44,0,0,0,0,.28c-.05,1-.08,1.64-.08,1.71v0a7.53,7.53,0,0,0,1.41,4.62,5.19,5.19,0,0,0,4.23,2,5.19,5.19,0,0,0,4.23-2,7.54,7.54,0,0,0,1.42-4.62v0s0-.71-.09-1.7a2.71,2.71,0,0,0,0-.29.45.45,0,0,0,0-.16c-.1-2.31-.22-5.34-.21-6.71A19.65,19.65,0,0,1,28.63,14.55Zm-5.9,17.94c-3.41,0-4.3-2.9-4.53-4.37a5.55,5.55,0,0,0,9.06,0C27,29.59,26.14,32.49,22.73,32.49Zm4.54-7.32a4.55,4.55,0,0,1-9.08,0c.09-2,.24-5.63.23-7.16a16.42,16.42,0,0,0-.55-3.3,27.9,27.9,0,0,1-.64-3.43L22.73,7l5.48,4.24c-.12,1-.35,2-.58,3.06A20.1,20.1,0,0,0,27,18C27,19.54,27.18,23.15,27.27,25.17ZM22.42,6l-5.26,4.06a.21.21,0,0,1,0-.11c0-2.68,4.46-7.53,5.57-8.7,1.11,1.17,5.56,6,5.58,8.7v.11L23,6A.51.51,0,0,0,22.42,6Z"/><path class="cls-1" d="M23.56,19.58H21.9a.51.51,0,0,0-.51.51v6.13a.51.51,0,0,0,.51.51h1.66a.51.51,0,0,0,.51-.51V20.09A.51.51,0,0,0,23.56,19.58Zm-.51,1v5.11h-.64V20.6Z"/></g></g></svg>