<svg xmlns="http://www.w3.org/2000/svg" viewBox="0 0 8.38 11"><defs><style>.cls-1{fill:#333;}</style></defs><g id="Слой_2" data-name="Слой 2"><g id="Слой_1-2" data-name="Слой 1"><path class="cls-1" d="M0,5.55H1.59V2A2.4,2.4,0,0,0,1.37.66a1.18,1.18,0,0,0-1-.35H0V0H4C6,0,7,.38,7.79,1.34A2.56,2.56,0,0,1,8.38,3c0,1.81-1.21,3.05-3.4,3.05H3.13v.69H7.89v.54H3.13V9.05a2.26,2.26,0,0,0,.23,1.29,1.16,1.16,0,0,0,.93.36h.42V11H0v-.3h.4a1.16,1.16,0,0,0,1-.45,2.73,2.73,0,0,0,.16-1.2V7.31H0V6.77H1.59V6.08H0Zm3.13,0H4.46A1.93,1.93,0,0,0,5.92,4.9a2.38,2.38,0,0,0,.62-1.69C6.54,1.46,5.63.66,4.2.66A4.6,4.6,0,0,0,3.13.82Z"/></g></g></svg>