<svg xmlns="http://www.w3.org/2000/svg" viewBox="0 0 91.26 29.5"><defs><style>.cls-1,.cls-2{fill:#665822;}.cls-1{fill-rule:evenodd;}</style></defs><g id="Слой_2" data-name="Слой 2"><g id="Слой_1-2" data-name="Слой 1"><path class="cls-1" d="M89.87,12.85a1.39,1.39,0,1,0,1.39,1.39,1.39,1.39,0,0,0-1.39-1.39Zm0,2.62h0a1.23,1.23,0,1,1,1.22-1.23,1.22,1.22,0,0,1-1.22,1.23Z"/><path class="cls-1" d="M90.58,13.87a.39.39,0,0,0-.17-.33.73.73,0,0,0-.38-.08h-.68V15h.19V14.3h.35l.45.72h.22l-.47-.72c.28,0,.49-.12.49-.43Zm-.75.28h-.29V13.6H90c.19,0,.4,0,.4.27s-.34.28-.56.28Z"/><path class="cls-1" d="M81.72,6.36l2.84-3a.93.93,0,0,0,.25-.51c0-.22-.19-.31-.8-.31h-.72V.58h7.77V2.5H90c-1.18,0-1.4.18-3,2.25L82.5,9.61v3c0,.76.38,1,1.48,1h1.7v1.85H74.8V13.6h1.7c1.1,0,1.48-.27,1.48-1v-3l-5.3-5.86c-.88-1-.75-1.25-3.19-1.25V.58h9.84V2.5h-.71c-.71,0-1,.13-1,.4s.22.4.36.58L80.65,6.4a.66.66,0,0,0,1.07,0Z"/><path class="cls-1" d="M15.71.58h2.37V5.93H15.89a3.43,3.43,0,0,0-1.47-2A9.18,9.18,0,0,0,8.93,2c-2.59,0-4.77.8-4.77,2,0,3.28,14.8.67,14.8,6.87,0,3.23-3.17,5-8.87,5a16.75,16.75,0,0,1-6.71-1.54c-.55-.32-.79.3-.89,1.08H.06V9.92h2.2A4.37,4.37,0,0,0,4,12.17c1.06,1,3.6,1.69,5.93,1.67,3.52,0,4.72-.8,4.72-1.92s-1.19-1.38-5-2L6.37,9.41C2.69,8.85,0,8,0,5.08s3.4-5,8.77-5a11.53,11.53,0,0,1,6,1.33c.51.33,1,.37,1-.86Z"/><path class="cls-1" d="M62,9.54l0-5.95c0-.78-.41-1-1.57-1H59.14V.69h8.67V2.54H66.68c-1.16,0-1.57.27-1.57,1v12l-3.39,0-11-10.4v7.55c0,.76.41,1.05,1.57,1.05h1.51v1.83h-9V13.73H46.3c1.16,0,1.56-.29,1.56-1.05V3.59c0-.78-.4-1-1.56-1H44.81V.69h7.78L62,9.54Z"/><path class="cls-1" d="M33,0C26.08,0,21.76,3.05,21.76,8s4.26,7.84,11,7.84c7.18,0,11.35-3,11.35-8.09C44.13,3.12,39.63,0,33,0Zm-.16,13.86h0c-3.82,0-6-2.2-6-6S29.1,1.92,33,1.92c3.76,0,6,2.25,6,6.08s-2.23,5.86-6.15,5.86Z"/><path class="cls-2" d="M10.75,21.61A2.91,2.91,0,0,0,8.1,23.24a3.16,3.16,0,0,0-1-1.12A2.82,2.82,0,0,0,4,22a2.6,2.6,0,0,0-.79.66v-.93H2.59v7.54h.65v-4.8a2.19,2.19,0,0,1,.65-1.61,2.16,2.16,0,0,1,1.61-.66A2.12,2.12,0,0,1,7.12,23a2.5,2.5,0,0,1,.71,1.74v4.56h.64v-4.6A2.6,2.6,0,0,1,9.1,22.9a2.18,2.18,0,0,1,1.66-.68,2.07,2.07,0,0,1,1.7.77,3.31,3.31,0,0,1,.62,2.11v4.19h.63V25.05a3.77,3.77,0,0,0-.78-2.51,2.75,2.75,0,0,0-2.18-.93Z"/><path class="cls-2" d="M21.3,23.44a3.71,3.71,0,0,0-3.39-1.83,3.69,3.69,0,0,0-2.72,1.19A3.87,3.87,0,0,0,14,25.56a3.73,3.73,0,0,0,1.2,2.78,4.06,4.06,0,0,0,2.89,1.14,3.58,3.58,0,0,0,2-.65,3.83,3.83,0,0,0,1.12-1.15c0,.16,0,.34,0,.52v.48a1.77,1.77,0,0,0,0,.32v.29h.64v-7.5H21.3v1.65Zm-.95-.24h0a3.28,3.28,0,0,1,1,2.38,3.12,3.12,0,0,1-1,2.32,3.2,3.2,0,0,1-2.34,1,3.24,3.24,0,0,1-2.34-1,3.19,3.19,0,0,1-1-2.33,3.28,3.28,0,0,1,1-2.35,3.12,3.12,0,0,1,2.32-1,3.28,3.28,0,0,1,2.38,1Z"/><path class="cls-2" d="M28.39,21.77h-.82l-3.74,5V19h-.69V29.29h.69V27.81L25.21,26c1.14,1.36,2,2.46,2.56,3.27l0,.05h.87l-3-3.86,2.72-3.66Z"/><path class="cls-2" d="M36.72,25.57a3.91,3.91,0,0,0-1.17-2.78,3.69,3.69,0,0,0-2.72-1.17A4,4,0,0,0,30,22.75a3.51,3.51,0,0,0-1.21,2.66A4,4,0,0,0,30,28.34a3.94,3.94,0,0,0,2.92,1.16,3.56,3.56,0,0,0,2.07-.66,4.34,4.34,0,0,0,1.47-1.77l.08-.17h-.65l0,.05a4.82,4.82,0,0,1-1.36,1.45,3.68,3.68,0,0,1-1.93.43,2.9,2.9,0,0,1-2-.82,3.05,3.05,0,0,1-1-1.91c0-.17,0-.31,0-.41h7.26v-.12ZM32.8,22.25h0A3.09,3.09,0,0,1,35,23.1a3.29,3.29,0,0,1,1.06,2H29.47a3.76,3.76,0,0,1,1.14-2,3.23,3.23,0,0,1,2.19-.8Z"/><path class="cls-2" d="M47,21.57a4,4,0,0,0-3.3,1.77l0-4.42H43V29.28h.66V27.72a3.61,3.61,0,0,0,1.16,1.14,3.73,3.73,0,0,0,2,.63,4,4,0,0,0,2.84-1.14,3.61,3.61,0,0,0,1.2-2.72,4,4,0,0,0-1.15-2.87A3.76,3.76,0,0,0,47,21.57Zm3.29,4h0a3,3,0,0,1-1,2.34,3.58,3.58,0,0,1-2.53.92,2.87,2.87,0,0,1-2.14-1,3.28,3.28,0,0,1,0-4.62,3.26,3.26,0,0,1,4.66,0,3.28,3.28,0,0,1,1,2.35Z"/><path class="cls-2" d="M59.28,25.57a3.91,3.91,0,0,0-1.17-2.78,3.69,3.69,0,0,0-2.72-1.17,4,4,0,0,0-2.81,1.13,3.51,3.51,0,0,0-1.21,2.66,4,4,0,0,0,4.06,4.09,3.56,3.56,0,0,0,2.07-.66A4.27,4.27,0,0,0,59,27.07l.08-.17H58.4l0,.05A4.82,4.82,0,0,1,57,28.4a3.67,3.67,0,0,1-1.92.43,2.91,2.91,0,0,1-2-.82,3.15,3.15,0,0,1-1-1.91c0-.17,0-.31,0-.41h7.26v-.12Zm-3.92-3.32h0a3.09,3.09,0,0,1,2.16.85,3.24,3.24,0,0,1,1.06,2H52a3.64,3.64,0,0,1,1.14-2,3.19,3.19,0,0,1,2.18-.8Z"/><polygon class="cls-2" points="60.21 29.28 60.87 29.28 60.87 18.97 60.21 18.97 60.21 29.28 60.21 29.28"/><polygon class="cls-2" points="62 29.28 62.66 29.28 62.66 21.78 62 21.78 62 29.28 62 29.28"/><polygon class="cls-2" points="62 20.41 62.66 20.41 62.66 18.99 62 18.99 62 20.41 62 20.41"/><path class="cls-2" d="M71.48,25.57a3.91,3.91,0,0,0-1.17-2.78,3.69,3.69,0,0,0-2.72-1.17,4,4,0,0,0-2.81,1.13,3.54,3.54,0,0,0-1.21,2.66,4,4,0,0,0,4.06,4.09,3.56,3.56,0,0,0,2.07-.66,4.34,4.34,0,0,0,1.47-1.77l.08-.17H70.6l0,.05A4.82,4.82,0,0,1,69.2,28.4a3.67,3.67,0,0,1-1.92.43,2.91,2.91,0,0,1-2-.82,3.15,3.15,0,0,1-1-1.91c0-.17,0-.31,0-.41h7.26v-.12Zm-3.92-3.32h0a3.09,3.09,0,0,1,2.16.85,3.24,3.24,0,0,1,1.06,2H64.24a3.64,3.64,0,0,1,1.14-2,3.21,3.21,0,0,1,2.18-.8Z"/><polygon class="cls-2" points="74.57 28.42 71.9 21.75 71.18 21.75 74.23 29.25 74.9 29.25 78.01 21.8 77.36 21.74 74.57 28.42 74.57 28.42"/><path class="cls-2" d="M85.25,27a5,5,0,0,1-1.37,1.45,3.67,3.67,0,0,1-1.92.43A2.89,2.89,0,0,1,80,28a3.05,3.05,0,0,1-1-1.91c0-.17,0-.31,0-.41h7.26v-.12A3.87,3.87,0,0,0,85,22.79a3.69,3.69,0,0,0-2.72-1.17,4,4,0,0,0-2.81,1.13,3.54,3.54,0,0,0-1.21,2.66,4,4,0,0,0,1.15,2.93,3.93,3.93,0,0,0,2.91,1.16,3.59,3.59,0,0,0,2.08-.66,4.32,4.32,0,0,0,1.46-1.77l.09-.17h-.66l0,.05Zm-3-4.7h0a3.11,3.11,0,0,1,2.17.85,3.34,3.34,0,0,1,1.06,2H78.92a3.64,3.64,0,0,1,1.14-2,3.21,3.21,0,0,1,2.18-.8Z"/><path class="cls-2" d="M40.62,28.24A1.26,1.26,0,1,1,39.36,27a1.26,1.26,0,0,1,1.26,1.26Z"/></g></g></svg>