<svg width="46" height="16" viewBox="0 0 46 16" fill="none" xmlns="http://www.w3.org/2000/svg">
<g clip-path="url(#clip0)">
<path d="M23.7906 5.13053C23.7637 7.22077 25.6342 8.38564 27.043 9.07876C28.4913 9.79002 28.9764 10.2454 28.971 10.8823C28.9602 11.8567 27.8156 12.2849 26.7465 12.303C24.8795 12.3321 23.7924 11.7932 22.9299 11.3867L22.2579 14.5656C23.124 14.9684 24.7268 15.3204 26.3907 15.335C30.2935 15.335 32.8487 13.3899 32.8613 10.3725C32.8756 6.54398 27.6162 6.3317 27.6521 4.62068C27.6647 4.10174 28.1552 3.54834 29.2298 3.40681C29.7616 3.33605 31.2297 3.28162 32.8936 4.05457L33.5477 0.979088C32.6528 0.650674 31.501 0.334961 30.0689 0.334961C26.3961 0.334961 23.8104 2.30726 23.7906 5.13053ZM39.8259 0.59987C39.1126 0.59987 38.5124 1.01901 38.2447 1.66495L32.669 15.11H36.57L37.3462 12.9435H42.1134L42.5644 15.11H46L42.9992 0.59987H39.8259ZM40.3704 4.51907L41.497 9.96784H38.4136L40.3704 4.51907ZM19.0613 0.59987L15.985 15.1082H19.7027L22.7754 0.59987H19.0613ZM13.561 0.59987L9.69234 10.4759L8.12727 2.07864C7.94398 1.14057 7.21805 0.59987 6.41305 0.59987H0.0880469L0 1.02082C1.29914 1.30569 2.77437 1.76474 3.66742 2.25464C4.21367 2.55402 4.37 2.81712 4.54969 3.5302L7.51453 15.1082H11.4425L17.4656 0.59987H13.561Z" fill="#828282"/>
</g>
<defs>
<clipPath id="clip0">
<rect width="46" height="15" fill="#828282" transform="translate(0 0.334961)"/>
</clipPath>
</defs>
</svg>
