<svg width="41" height="29" viewBox="0 0 41 29" fill="none" xmlns="http://www.w3.org/2000/svg">
<path d="M16.789 14.6722C16.789 11.6959 18.2363 9.04368 20.4879 7.33516C18.8415 6.08553 16.7621 5.33887 14.5024 5.33887C9.15445 5.33887 4.81799 9.51813 4.81799 14.6722C4.81799 19.8263 9.15445 24.0055 14.5024 24.0055C16.7621 24.0055 18.8389 23.2589 20.4879 22.0092C18.2363 20.3007 16.789 17.6485 16.789 14.6722Z" fill="white"/>
<path d="M36.158 14.6722C36.158 19.8263 31.8215 24.0055 26.4736 24.0055C24.2139 24.0055 22.1371 23.2589 20.4881 22.0092C22.7397 20.3007 24.187 17.6485 24.187 14.6722C24.187 11.6959 22.7397 9.04368 20.4881 7.33516C22.1344 6.08553 24.2139 5.33887 26.4736 5.33887C31.8215 5.33887 36.158 9.51813 36.158 14.6722Z" fill="white"/>
<path d="M35.2324 20.4562V20.1555H35.3589V20.0933H35.0387V20.1555H35.1652V20.4562H35.2324ZM35.8538 20.4562V20.0933H35.757L35.644 20.3422L35.531 20.0933H35.4315V20.4562H35.5014V20.184L35.6063 20.4199H35.679L35.7839 20.184V20.4588H35.8538V20.4562Z" fill="white"/>
</svg>
