<svg width="40" height="25" viewBox="0 0 40 25" fill="none" xmlns="http://www.w3.org/2000/svg">
<path d="M2.74835 23.8832V21.1889H4.33869V20.2085H0V21.1889H1.59034V23.8832H2.74835ZM5.92154 22.3469V20.2085H4.80214V23.8832H5.79034L7.7203 21.7448V23.8832H8.83974V20.2085H7.85158L5.92154 22.3469ZM12.6057 22.5168V23.8832H13.725V20.2085H12.6057V21.5518H10.8069V20.2085H9.68752V23.8832H10.8069V22.5168H12.6057ZM16.8427 23.8832C17.0972 23.8832 17.3291 23.8601 17.5452 23.7983C18.1244 23.6362 18.5021 23.1653 18.5021 22.5245C18.5021 21.9146 18.1785 21.49 17.6611 21.297C17.4136 21.2043 17.1206 21.1966 16.8427 21.1966H15.6924V20.2085H14.5727V23.8832H16.8427ZM16.6497 22.0613C16.804 22.0613 16.9506 22.0613 17.0819 22.1076C17.2673 22.1693 17.3752 22.3238 17.3752 22.5091C17.3752 22.7021 17.2673 22.8642 17.0896 22.9414C16.966 22.9954 16.8427 22.9954 16.6497 22.9954H15.6924V22.0613H16.6497ZM20.5096 22.4936L21.845 23.8832H23.3351L21.4746 21.9686L23.2656 20.2085H21.8604L20.5096 21.5904H20.2006V20.2085H19.0817V23.8832H20.2006V22.4936H20.5096ZM25.6381 20.1081C24.1327 20.1081 23.2295 20.9573 23.2295 22.0535C23.2295 23.1498 24.1327 23.999 25.6381 23.999C27.1362 23.999 28.0394 23.1498 28.0394 22.0535C28.0394 20.9573 27.1362 20.1081 25.6381 20.1081ZM25.6381 23.1035C24.8896 23.1035 24.4113 22.6557 24.4113 22.0535C24.4113 21.4514 24.8896 21.0113 25.6381 21.0113C26.3793 21.0113 26.8657 21.4514 26.8657 22.0535C26.8657 22.6557 26.3793 23.1035 25.6381 23.1035ZM31.7674 20H30.6481V20.3706C29.2429 20.4015 28.4015 20.9959 28.4015 22.0458C28.4015 23.0958 29.2429 23.6439 30.6481 23.6748V24.0454H31.7674V23.6748C33.18 23.6439 34.0217 23.0958 34.0217 22.0458C34.0217 20.9959 33.18 20.4015 31.7674 20.3706V20ZM30.6481 22.8873C29.8759 22.8565 29.5365 22.5399 29.5365 22.0458C29.5365 21.5518 29.8759 21.1966 30.6481 21.1658V22.8873ZM31.7674 21.1658C32.5473 21.1966 32.879 21.5518 32.879 22.0458C32.879 22.5399 32.5473 22.8565 31.7674 22.8873V21.1658ZM37.746 20H36.6264V20.3706C35.2215 20.4015 34.3801 20.9959 34.3801 22.0458C34.3801 23.0958 35.2215 23.6439 36.6264 23.6748V24.0454H37.746V23.6748C39.1589 23.6439 40 23.0958 40 22.0458C40 20.9959 39.1589 20.4015 37.746 20.3706V20ZM36.6264 22.8873C35.8545 22.8565 35.5148 22.5399 35.5148 22.0458C35.5148 21.5518 35.8545 21.1966 36.6264 21.1658V22.8873ZM37.746 21.1658C38.5256 21.1966 38.8576 21.5518 38.8576 22.0458C38.8576 22.5399 38.5256 22.8565 37.746 22.8873V21.1658Z" fill="#828282"/>
<path d="M29.7389 6.93896C29.6817 6.8797 29.6483 6.82543 29.601 6.75007C29.5763 6.71183 29.5497 6.67066 29.5202 6.62641C29.6038 6.52731 29.6723 6.41584 29.7231 6.29581L29.932 5.81044L29.4177 5.73507C29.331 5.72201 29.1911 5.68484 29.0275 5.64062C28.7122 5.55619 28.3074 5.44766 27.866 5.40043C28.0167 5.3331 28.1448 5.2115 28.2344 5.04668L28.3191 4.89092C28.3191 4.89092 28.2965 4.67289 28.2138 4.60457C28.2453 4.53724 28.2699 4.46286 28.2866 4.38144L28.3566 4.03374L28.0275 3.91922C27.9779 3.90156 27.9268 3.88843 27.8749 3.88C27.8561 3.81666 27.8285 3.74937 27.7911 3.67796L27.596 3.3132L27.2443 3.52323C27.1566 3.57548 27.0827 3.63581 27.0226 3.7031C26.9674 3.69282 26.9113 3.68778 26.8551 3.68806C26.8551 3.68806 26.6542 3.66494 26.4325 3.74735L26.1487 3.44688L25.8128 3.08113C25.4985 2.73841 25.0729 2.63692 24.6394 2.80575C24.4739 2.63692 24.2158 2.49723 23.8148 2.49723C23.6788 2.49723 23.5595 2.51433 23.4896 2.52336C23.4896 2.52336 22.9379 2.62588 22.6275 2.92632L22.2512 2.74344C21.999 3.14842 21.5675 3.27702 21.5675 3.27702C21.538 3.15801 21.4865 3.04581 21.4158 2.94642L21.4404 2.80373C21.4404 2.79969 21.5251 2.31634 21.7832 1.90633L22.2325 1.1928L21.596 1.26619C21.598 1.20187 21.595 1.12555 21.5862 1.03506L21.529 0.480344L21.0305 0.710481C20.9753 0.735577 20.929 0.760713 20.8857 0.783829L20.7871 0.569762L20.5586 0.690373C20.5316 0.622601 20.5006 0.556503 20.466 0.492417L20.2029 0L19.8295 0.411033C19.7948 0.44884 19.7619 0.488407 19.731 0.529585L19.5044 0.299488L19.2758 0.530615C19.2447 0.489661 19.2118 0.450094 19.1773 0.412023L18.8 0L18.5359 0.494396C18.5016 0.558139 18.471 0.623911 18.4443 0.691363L18.2167 0.570831L18.1182 0.784819C18.0749 0.761742 18.0286 0.736567 17.9734 0.710481L17.4729 0.481333L17.4177 1.03807C17.4089 1.12753 17.4059 1.2029 17.4079 1.26726L16.7704 1.19383L17.2207 1.90728C17.4798 2.31634 17.5625 2.79965 17.5625 2.80369L17.5862 2.94639C17.5143 3.04887 17.463 3.15942 17.4345 3.27801C17.4345 3.27801 17.0266 3.10017 16.7536 2.7434L16.3694 2.93027C15.931 2.62881 15.6591 2.51125 15.1862 2.49719C14.7852 2.48611 14.5271 2.63692 14.3616 2.80571C13.9271 2.63787 13.5024 2.73936 13.1892 3.08204C13.1892 3.08204 12.9832 3.31016 12.8532 3.44783C12.7231 3.58653 12.531 3.70108 12.531 3.70108C12.531 3.70108 12.2581 3.63878 11.9773 3.70413C11.9172 3.63676 11.8424 3.57647 11.7537 3.52319L11.401 3.31316L11.2069 3.67998C11.1694 3.75032 11.1428 3.81666 11.1251 3.87996C11.0732 3.88838 11.0221 3.90149 10.9724 3.91915L10.6453 4.03568L10.7133 4.3814C10.73 4.4648 10.7537 4.53918 10.7862 4.60651C10.767 4.64443 10.7506 4.68372 10.737 4.72407L10.6818 4.89191L10.7655 5.04763C10.8542 5.21146 10.9812 5.33405 11.133 5.40142C10.6906 5.44865 10.2867 5.55714 9.97045 5.64157C9.80787 5.6848 9.66797 5.72296 9.58127 5.73602L9.06504 5.81242L9.18226 6.08372L9.27588 6.29981C9.32833 6.41859 9.39699 6.52922 9.47981 6.62843C9.44925 6.6726 9.31917 6.88065 9.26105 6.93991L9 7.21026L9.25025 7.49166C9.28174 7.52582 9.56255 7.8263 10.0167 7.82729C10.1409 7.82729 10.264 7.80524 10.3862 7.76095C10.5074 7.95395 10.6512 8.14985 10.7823 8.24636C10.5409 8.53579 10.266 8.78702 9.87485 8.97695L9.5478 9.13568L9.68863 9.51659C9.7803 9.74668 9.9586 9.99891 10.3034 10.0954C10.2296 10.3205 10.1941 10.5336 10.1626 10.7235C10.0886 11.1747 10.0571 11.3616 9.66797 11.5013L9.3182 11.6259L9.41873 11.9897C9.49949 12.2861 9.62068 12.4821 9.75173 12.6117L9.51918 12.873C9.51918 12.873 10.0709 13.2951 10.6118 13.3463C10.6197 13.3473 11.0808 13.3775 11.2877 13.1081C11.3705 13.4136 11.5015 13.695 11.6207 13.9503C11.865 14.4748 11.9951 14.7853 11.8315 15.0687L11.4621 15.7079L12.1882 15.6767C12.5054 15.6637 12.8 15.6436 13.0552 15.5792C13.0552 15.5933 13.0542 15.6064 13.0532 15.6195L12.9941 16.1681L13.6305 16.0314C13.6954 16.0119 13.7581 15.9856 13.8177 15.9531C14.2118 16.4234 14.8818 16.7901 15.7842 16.7901H15.8364L14.799 17.2243L15.5547 17.6253C16.0522 17.8896 16.6049 18.1106 17.2355 18.2985L17.1478 18.6071L17.5271 18.7206C17.7458 18.7859 18.5369 19 19.5005 19C20.464 19 21.2542 18.7859 21.4739 18.7206L21.8522 18.6071L21.7645 18.2995C22.396 18.1117 22.9488 17.8906 23.4463 17.6263L24.202 17.2253L23.1635 16.7912H23.2157C24.1182 16.7912 24.7872 16.4244 25.1812 15.9541C25.2409 15.9866 25.3036 16.0129 25.3684 16.0325L26.0049 16.1692L25.9467 15.6214C25.9456 15.6077 25.9449 15.594 25.9448 15.5802C26.199 15.6446 26.4945 15.6637 26.8108 15.6777L27.5369 15.7089L27.1695 15.0708C27.0049 14.7874 27.1359 14.4768 27.3793 13.9523C27.4985 13.697 27.6295 13.4156 27.7123 13.1102C27.8521 13.2187 28.003 13.284 28.1527 13.3182C28.1527 13.3182 28.2689 13.3534 28.3803 13.3564C28.7014 13.3664 28.862 13.273 29.0827 13.1313L29.4837 12.874L29.2492 12.6127C29.3803 12.4841 29.5014 12.2882 29.5822 11.9927L29.6837 11.6279L29.333 11.5033C28.9428 11.3636 28.9123 11.1767 28.8384 10.7255C28.8069 10.5355 28.7724 10.3216 28.6975 10.0974C29.0423 9.9999 29.2197 9.74771 29.3113 9.51856L29.4512 9.13674L29.1241 8.97794C28.7329 8.78801 28.4581 8.53678 28.2157 8.24735C28.3478 8.15092 28.4916 7.95494 28.6137 7.76201C28.7323 7.80525 28.8572 7.82765 28.9832 7.82828C29.4374 7.82828 29.7192 7.52788 29.7497 7.49368L30 7.21228L29.7389 6.93896Z" fill="white"/>
<path fill-rule="evenodd" clip-rule="evenodd" d="M16.1837 11.8563V8.82415C16.1837 8.54181 16.1 8.25943 16 8H18.4157C18.6371 8.2962 19.0392 8.49506 19.5005 8.49506C19.9597 8.49506 20.3618 8.2962 20.5843 8H23C22.898 8.26049 22.8153 8.54181 22.8153 8.82415V11.8563H16.1837ZM19.4995 16C19.1617 15.6729 18.9208 15.6371 18.0105 15.6371C16.9226 15.6371 16.1837 15.0158 16.1837 14.0226V12.0343H22.8143V14.0226C22.8143 15.0158 22.0764 15.6371 20.9864 15.6371C20.0771 15.6362 19.8362 15.6729 19.4995 16Z" fill="#FFDD2D"/>
<path d="M16.6296 16.0709V16.6736L16.1008 16.8845C16.5477 17.0854 17.1025 17.2853 17.7543 17.4328L18.0541 16.4658C17.4144 16.3361 16.9685 16.2005 16.6296 16.0709ZM19.5011 16.8875C18.8763 16.8875 18.3505 16.8232 18.1405 16.7757L17.8236 17.7902C18.3215 17.9109 18.9043 18 19.5011 18C20.0959 18 20.6788 17.9119 21.1786 17.7902L20.8607 16.7757C20.6508 16.8242 20.127 16.8875 19.5011 16.8875ZM22.3719 16.0709C22.0321 16.2005 21.5872 16.3351 20.9474 16.4668L21.2483 17.4338C21.9011 17.2863 22.4539 17.0864 22.9008 16.8855L22.3729 16.6746V16.0709H22.3719ZM15.5222 6.34644C16.35 5.90398 18.3733 4.93006 17.0017 3.87992C16.8148 3.73743 16.6088 3.60877 16.4359 3.4494C16.222 3.61271 16.5159 4.01852 16.5899 4.16694C16.5899 4.16694 16.133 4.21252 16.0241 4.21252C15.3183 4.20952 14.5785 3.79579 14.9534 3.00304C14.6725 3.06039 14.6385 3.32764 14.5525 3.55626C14.3725 3.43552 14.0597 3.17622 13.8188 3.21279C14.0147 3.83345 14.8395 4.39267 15.4792 4.5193C14.8324 4.86772 13.6328 5.12702 13.002 4.37681C12.5591 5.22504 13.176 5.57938 13.7808 6.02375C11.4785 7.06399 11.8184 8.23097 10.3079 9.14945C10.5038 9.24052 11.3776 9.05744 11.4555 9.04653C11.1276 9.46715 10.9746 9.64532 10.8787 9.85019C10.7868 10.0422 10.7457 10.259 10.6548 10.7261C10.5838 11.0953 10.4539 11.4635 10 11.708C10.1779 12.0267 10.5728 11.7773 10.7377 11.7347C10.7158 11.7684 10.6597 12.1524 10.5118 12.3375C11.2876 12.288 10.9287 10.6688 11.7044 11.0587C11.9234 11.1676 11.9894 11.4229 11.8884 11.6318C11.3786 12.673 12.5372 13.5906 12.4742 14.5031C12.759 14.5011 13.054 14.4932 13.2399 14.1122C13.3369 14.3022 13.4869 14.5694 13.5708 14.8267L13.8028 14.4358C13.9457 15.0831 14.5555 15.6809 15.3793 15.7344C14.9864 15.1187 15.4573 14.2784 14.5025 13.3847C14.6215 13.2896 14.8964 13.1065 14.9944 12.9819C13.8228 13.1184 12.6001 12.2009 13.155 11.7654C13.5179 11.4813 13.6768 12.0713 14.2367 11.9722L14.0177 11.7852C14.0947 11.71 14.1826 11.612 14.2736 11.5378C14.0357 11.509 13.7758 11.3586 13.7758 11.3586L13.9177 11.126C12.5452 11.124 12.5102 10.0848 13.068 10.0432C13.3299 10.0244 13.6688 10.5024 14.5135 10.4025C14.4056 10.2738 14.3626 10.0788 14.3116 9.93534C14.5155 9.91651 14.7555 9.9185 14.9484 9.82548C14.5355 9.773 14.4316 9.63546 14.0877 9.37807L14.4866 9.23362C13.9078 8.9475 13.9427 8.44972 13.9247 7.93105C14.2276 8.10325 14.5835 8.3705 14.9634 8.2468C15.0533 8.21709 15.1113 8.17549 15.1133 8.08247C14.5715 7.86773 14.2237 7.04126 15.5222 6.34644ZM14.5335 6.42761C13.8087 7.19467 14.1226 7.65393 14.2686 7.79545C13.9987 7.73802 13.5958 7.39755 13.6878 7.06796C13.6018 7.16995 13.5139 7.28079 13.4239 7.39459C13.2529 7.61978 13.0915 7.85191 12.94 8.09038C12.7201 8.73771 13.123 9.40583 13.8087 9.70177C13.047 9.59086 12.7051 8.91982 12.7072 8.49226C12.3432 9.17323 12.1693 9.79479 12.1853 10.3164C12.1923 10.5104 12.2093 10.6915 12.2353 10.8627C12.4102 11.1913 12.6911 11.3121 13.1919 11.3725C12.7371 11.4012 12.4961 11.3804 12.2982 11.1745C12.6081 12.4939 14.0577 13.6361 14.6475 14.6139C14.0567 13.8538 12.8341 12.7215 12.4062 11.903C12.3733 12.1989 12.4532 12.9571 12.825 13.4233C12.2772 12.8898 12.2343 12.0822 12.2703 11.609C12.1313 11.2686 12.0433 10.8885 12.0313 10.456C12.0204 10.058 12.0483 9.71261 12.1093 9.40282C11.7634 9.8898 11.2636 10.0779 11.0177 10.8192C11.0656 9.86306 11.7864 9.84824 12.3262 8.68727C12.5351 8.17947 12.8391 7.74103 13.175 7.24414C12.7481 7.38274 12.4282 7.48169 11.9344 8.01713C12.2852 7.19564 14.3126 6.27221 15.2413 5.37845C14.9624 5.43689 13.8238 5.46554 13.3509 5.15279C14.2076 5.38242 16.114 5.12008 16.8338 4.63314C16.337 5.34086 15.2553 5.38141 13.9387 6.78886C14.1067 6.65623 14.3306 6.52262 14.5335 6.42761ZM28.3462 10.7261C28.2552 10.259 28.2152 10.0422 28.1233 9.85019C28.0283 9.64528 27.8743 9.46715 27.5454 9.04653C27.6235 9.05736 28.4991 9.24052 28.6941 9.14945C27.1836 8.23093 27.5235 7.06399 25.2202 6.02375C25.825 5.57934 26.4418 5.22504 25.9989 4.37579C25.3682 5.12702 24.1685 4.86772 23.5217 4.51833C24.1625 4.39162 24.9863 3.83337 25.1822 3.21181C24.9403 3.17521 24.6274 3.43454 24.4475 3.55427C24.3614 3.32565 24.3285 3.05844 24.0476 3C24.4225 3.7938 23.6817 4.20753 22.9749 4.21049C22.867 4.21049 22.4111 4.16499 22.4111 4.16499C22.4841 4.01653 22.778 3.61072 22.563 3.44741C22.3901 3.60772 22.1862 3.7354 21.9982 3.87797C20.6257 4.92811 22.651 5.90301 23.4788 6.34445C24.7754 7.03923 24.4305 7.86571 23.8876 8.07752C23.8896 8.17054 23.9476 8.2121 24.0386 8.24181C24.4165 8.36656 24.7743 8.09931 25.0752 7.92606C25.0583 8.44473 25.0942 8.94356 24.5154 9.22863L24.9133 9.37312C24.5694 9.63047 24.4664 9.76801 24.0536 9.82049C24.2455 9.91351 24.4874 9.91156 24.6904 9.93035C24.6384 10.0739 24.5934 10.2689 24.4874 10.3975C25.3332 10.4965 25.673 10.0194 25.933 10.0383C26.4888 10.0798 26.4558 11.1191 25.0822 11.121L25.2242 11.3536C25.2242 11.3536 24.9643 11.5041 24.7254 11.5328C24.8163 11.606 24.9053 11.705 24.9823 11.7803L24.7633 11.9673C25.3222 12.0663 25.4821 11.4764 25.845 11.7604C26.3998 12.1959 25.1782 13.1134 24.0056 12.9769C24.1045 13.1015 24.3794 13.2857 24.4984 13.3807C23.5427 14.2734 24.0126 15.1148 23.6217 15.7314C24.4434 15.6769 25.0532 15.0791 25.1982 14.4318L25.4301 14.8228C25.5131 14.5654 25.6651 14.2982 25.7601 14.1082C25.945 14.4892 26.2419 14.4971 26.5278 14.4991C26.4628 13.5865 27.6204 12.669 27.1126 11.6278C27.0106 11.4199 27.0766 11.1646 27.2955 11.0547C28.0733 10.6648 27.7124 12.284 28.4892 12.3335C28.3402 12.1484 28.2852 11.7644 28.2642 11.7308C28.4282 11.7733 28.8221 12.0228 29 11.703C28.5491 11.4635 28.4192 11.0953 28.3462 10.7261ZM26.8937 9.40181C26.9547 9.71261 26.9857 10.0571 26.9716 10.455C26.9586 10.8875 26.8716 11.2675 26.7327 11.608C26.7677 12.0811 26.7257 12.8888 26.1779 13.4222C26.5488 12.9551 26.6297 12.1979 26.5968 11.902C26.1669 12.7205 24.9453 13.8528 24.3535 14.6129C24.9443 13.635 26.3938 12.4919 26.7048 11.1735C26.5048 11.3784 26.2659 11.4001 25.81 11.3714C26.3099 11.3111 26.5907 11.1904 26.7657 10.8617C26.7917 10.6915 26.8087 10.5093 26.8157 10.3154C26.8327 9.79378 26.6578 9.17218 26.2939 8.49124C26.2969 8.91885 25.955 9.58988 25.1922 9.70072C25.876 9.4038 26.2799 8.73569 26.0609 8.08941C25.9108 7.85009 25.7493 7.6179 25.5771 7.39362C25.4871 7.27978 25.3992 7.16894 25.3121 7.06699C25.4041 7.39654 25.0013 7.73705 24.7314 7.79448C24.8783 7.65292 25.1912 7.1937 24.4675 6.42656C24.6704 6.52161 24.8943 6.65521 25.0632 6.78586C23.7467 5.37845 22.666 5.33884 22.1672 4.63018C22.888 5.11716 24.7944 5.3804 25.6501 5.14979C25.1782 5.46258 24.0386 5.43385 23.7597 5.37544C24.6884 6.26921 26.7177 7.19264 27.0676 8.0142C26.5738 7.47873 26.2529 7.37974 25.828 7.24114C26.1649 7.739 26.4668 8.17647 26.6757 8.68426C27.2166 9.84524 27.9383 9.85908 27.9853 10.8162C27.7394 10.0768 27.2405 9.88879 26.8937 9.40181Z" fill="white"/>
<path d="M20.575 8C20.3528 8.28096 19.9483 8.46953 19.4885 8.46953C19.381 8.46953 19.2776 8.4582 19.1793 8.44123C19.2069 8.5572 19.2714 8.67689 19.4056 8.77968C19.3513 9.11623 19.509 9.43113 19.9012 9.51312C19.9432 9.68472 20.0579 9.81387 20.2525 9.87518L19.979 10.1655C19.8736 10.2768 19.7363 10.3126 19.6258 10.2994L18.4051 10.1721C18.4583 10.0476 18.317 9.9034 17.9299 9.96471L18.4092 8.72973L18.1173 8.15749L17.5633 8.593L17.5223 9.88836L17.2837 9.78179C16.9765 9.65924 16.8854 10.1749 17.1782 10.1768L17.296 10.1778C17.2878 10.2306 17.3063 10.289 17.3523 10.3078C17.297 10.3286 17.2807 10.4238 17.3493 10.4577C17.2797 10.4889 17.2694 10.5869 17.3257 10.6293C17.2653 10.7246 17.254 10.931 17.4681 10.9829C17.6442 11.0253 17.7548 10.8518 17.7907 10.751L19.6902 11.2921C19.9575 11.3628 20.1501 11.3232 20.3733 11.1431L20.8689 10.7444C20.8065 11.0055 20.9079 11.2402 21.1239 11.3185C21.1239 11.3185 21.0902 11.5579 21.1035 11.6569L21.7681 11.6579H22.8146V8.7825C22.8146 8.51472 22.8976 8.24702 23 8H20.575ZM17.7303 12.8383L17.7672 12.8807C17.8183 12.9391 17.8491 12.925 17.9075 12.8939L17.9934 12.8515C18.0477 12.8137 18.401 12.9382 18.4205 12.6676C18.4594 12.8694 18.1983 13.2946 18.356 13.5321L18.568 13.8517L17.8757 13.8611C17.7999 13.8611 17.76 13.9036 17.7395 13.9413L17.5583 14.2873C17.5112 14.3787 17.5142 14.473 17.5736 14.5362L17.6965 14.6635C17.6965 14.6635 17.7968 14.5852 17.8296 14.4825L17.7753 14.4306C17.7303 14.391 17.7303 14.3533 17.7549 14.3042L17.8665 14.0912C17.9095 14.0073 17.9535 13.9894 18.0518 14.011L18.612 14.1223C18.653 14.1317 18.7195 14.1496 18.7594 14.0865C18.8281 13.9743 18.9489 13.9668 19.0718 13.9847C19.379 14.0271 20.0887 14.095 20.3416 13.8225C20.6386 14.1855 21.2193 14.1855 21.1814 14.3759L21.0585 15H21.2428L21.3554 14.3618C21.3677 14.2873 21.4179 14.1855 21.3309 14.1279C21.295 14.1025 21.2786 14.0893 21.1977 13.9611C21.0923 13.7914 21.0973 13.5368 20.996 13.3172C21.0923 13.2125 21.1967 13.1767 21.2879 13.1965C21.4927 13.2427 21.548 13.568 21.8388 13.8329C21.806 13.715 21.7917 13.5859 21.7231 13.4737C21.7231 13.4737 21.9248 13.6179 21.977 13.7867C22.0098 13.8923 22.0436 13.9696 22.147 14.0186C22.2157 14.0412 22.2976 14.011 22.3795 13.9206C22.3795 13.9206 22.188 13.6698 22.0477 13.5057C21.8552 13.2804 21.5982 13.0542 21.2479 13.0806C21.1373 13.0891 21.0308 13.1353 20.9294 13.1909C20.5311 12.9853 20.2218 13.2031 20.0989 13.2031L19.3534 13.1626C19.2069 13.1541 19.0913 12.9976 19.0913 12.9976C19.0728 12.4169 18.5659 12.1859 18.3908 12.1859C18.3908 12.1859 18.4072 12.0813 18.3611 12.0445L18.2054 12.2245L17.7733 12.0793L18.1122 12.3349L17.7446 12.728C17.7067 12.7666 17.7119 12.8175 17.7303 12.8383Z" fill="white"/>
<path d="M17.087 13.6531C16.9756 13.7276 16.9811 13.8314 17.0477 13.9474L17.1143 14.055L17.2879 13.9408L17.2486 13.8672C17.2202 13.8153 17.2213 13.7625 17.2704 13.7295L17.5193 13.5673C17.5891 13.523 17.6109 13.5182 17.6852 13.5277L18.2103 13.6229C18.2103 13.6229 18.1306 13.523 18.1043 13.4211L17.6099 13.3645C17.54 13.3569 17.4974 13.3824 17.4363 13.423L17.087 13.6531ZM20.4444 15H20.6431L20.9618 14.3218C20.9727 14.2982 20.988 14.2879 21 14.268C20.857 14.219 20.7729 14.185 20.654 14.1256C20.7337 14.2181 20.7959 14.2577 20.7631 14.3435L20.4444 15ZM20.6137 5.82706L20.9816 4L19.5876 4.40936V6.293L20.6137 5.82706ZM19.8234 4.59423L20.748 4.29994C20.748 4.29994 20.5679 4.42634 20.3528 4.5537C20.1618 4.6678 19.8234 4.78947 19.8234 4.78947V4.59423ZM19.8234 5.03662L20.6694 4.77532C20.6694 4.77532 20.5679 4.86776 20.3539 4.99512C20.1629 5.10825 19.8245 5.23 19.8245 5.23V5.03662H19.8234ZM19.8234 5.50631L20.5679 5.25924C20.5679 5.25924 20.5679 5.33749 20.3528 5.46389C20.1618 5.57806 19.8234 5.6997 19.8234 5.6997V5.50631Z" fill="white"/>
<path d="M18.0576 7.28623L18.0903 7.32646H18.398L18.4015 7.36761C18.405 7.40697 18.4167 7.4472 18.4343 7.48839C18.4822 7.60018 18.577 7.71737 18.7291 7.81218C18.9057 7.92129 19.1608 8 19.5 8C20.2359 8 20.5681 7.63598 20.5997 7.36761L20.602 7.32646H20.9109L20.9436 7.28623C21.2338 6.93919 21.5882 6.55368 22 6.49819L20.877 6L19.5 6.57246L18.1219 6L17 6.49819C17.4118 6.55276 17.7663 6.93919 18.0576 7.28623Z" fill="white"/>
<path d="M19.4022 6.41308V4.25147L18.1561 3.78171L18.4835 5.87838L19.4022 6.41308ZM19.1921 5.7344C19.1921 5.7344 18.8891 5.5937 18.718 5.46379C18.5255 5.3187 18.5255 5.22784 18.5255 5.22784L19.193 5.51137V5.7344H19.1921ZM19.1921 4.46363V4.68768C19.1921 4.68768 18.8891 4.54805 18.718 4.41712C18.5964 4.32477 18.4777 4.22764 18.3622 4.12591L19.1921 4.46363ZM19.1921 4.9713V5.19429C19.1921 5.19429 18.8891 5.05465 18.718 4.92474C18.5245 4.77863 18.4346 4.67255 18.4346 4.67255L19.1921 4.9713ZM19.5001 2.8574C18.7876 2.8574 18.253 3.11607 18.1367 3.41913L19.5001 4.01553L20.8615 3.41913C20.7462 3.11607 20.2126 2.85736 19.5001 2.85736V2.8574ZM19.5001 1.99146C20.0249 1.99146 20.5507 2.16793 20.9045 2.39629C20.9622 2.18524 21.0238 2.03478 21.1078 1.8627L20.7853 1.91787L20.5244 1.30088L20.0367 1.5877L19.5001 1L18.9626 1.5877L18.4758 1.30088L18.2129 1.91787L17.8904 1.8627C17.9744 2.03478 18.035 2.1852 18.0946 2.39629C18.4495 2.16793 18.9733 1.99146 19.5001 1.99146ZM28.3941 6.74326C28.57 6.7184 28.7117 6.65347 28.8847 6.51055C28.5123 6.40127 27.7324 6.08845 27.0668 6.22915C26.8469 6.26164 26.7247 6.36013 26.8029 6.41641C27.1606 6.67943 27.6024 7.28887 27.9239 8C28.2064 7.61141 28.0881 7.10157 28.0286 6.95541C28.5915 7.33104 28.739 7.51395 29 7.44257C28.8603 7.20548 28.6638 6.99225 28.3941 6.74326ZM11.0761 7.99893C11.3977 7.28776 11.8394 6.67837 12.1981 6.41534C12.2782 6.35902 12.1541 6.26053 11.9362 6.22804C11.2696 6.08841 10.4877 6.40016 10.1154 6.50953C10.2903 6.65236 10.4291 6.71733 10.607 6.74223C10.3363 6.99225 10.1398 7.20441 10 7.44147C10.2629 7.51292 10.4095 7.32997 10.9715 6.95439C10.9139 7.10161 10.7946 7.61035 11.0761 7.99893Z" fill="white"/>
<path fill-rule="evenodd" clip-rule="evenodd" d="M15.1617 13.4832C15.4237 13.2798 15.6413 13.1781 15.6304 12.685C15.2368 12.8826 14.1204 12.872 13.6537 12.2423C13.5222 12.0631 13.6627 11.973 13.7902 12.1145C14.1095 12.469 14.7009 12.3082 14.9165 12.2065C14.8818 12.0844 14.786 11.9255 14.7058 11.8577C14.7869 11.7802 15.0153 11.664 15.0618 11.4644C14.9402 11.3995 14.4665 11.353 14.4665 11.353C14.5427 11.2814 14.6376 11.1815 14.5803 10.9152C14.0967 11.0605 13.4985 10.8629 13.363 10.6875C13.2295 10.5151 13.366 10.3533 13.4787 10.4676C13.7199 10.7156 14.9086 10.9995 15.3506 10.5684C15.1864 10.5238 15.0055 10.3805 14.9729 10.2913C15.3822 10.2507 15.7085 10.0143 15.7352 9.71977C15.5087 9.71977 15.0816 9.70332 14.9353 9.59675C15.131 9.52604 15.2556 9.45629 15.3179 9.24123C14.5694 9.19663 14.51 8.65223 14.5061 8.56218C14.9936 8.83726 15.8519 8.71519 15.6294 8.0371C15.224 8.0158 14.8156 7.37354 15.93 6.78362C16.9435 6.24594 18.0956 5.66667 17.9937 4.71243C17.9274 4.10214 16.902 3.68561 16.7715 3.37654C16.3434 3.57614 16.2573 3.80768 16.4501 4.19612C16.4501 4.19612 15.4959 4.28911 15.4208 3.7137C15.3882 3.45602 15.5642 3.21479 15.753 3.0298C15.6462 3.0298 14.9273 2.84088 14.7108 3.41439C14.3083 3.14507 13.9632 3.15473 13.6923 3.43957C14.1254 3.69141 14.3934 4.55553 15.1093 4.81031C14.6 5.08057 13.7763 4.96725 13.2958 4.13606C12.8409 4.80737 12.5789 5.47196 13.5549 6.18199C11.7799 6.97342 11.7927 8.48659 10.2482 9.20731C10.4044 9.61899 10.7347 9.61899 11.1559 9.55512C10.4885 10.4047 11.057 11.2939 10 11.6572C10.0989 12.004 10.2976 12.2811 10.6873 12.1794C10.5765 12.3489 10.5033 12.345 10.3313 12.531C10.9087 12.8875 11.594 12.6298 11.7493 11.4857C11.7769 11.2814 12.0637 11.4092 11.9648 11.6097C11.3062 12.9437 12.9714 13.9473 12.3821 14.9257C12.9012 14.9043 13.2977 14.8647 13.5133 14.6932C13.6191 14.8986 13.6834 15.102 13.6597 15.3025C13.9464 15.2454 14.0512 15.0797 14.071 14.8879C14.2589 15.4255 14.9313 16 16.0071 16C15.4366 15.2018 15.9676 14.3928 15.1617 13.4832ZM14.0997 14.4665L13.8703 14.8491C13.7882 14.5973 13.6389 14.3357 13.543 14.1497C13.3581 14.5227 13.0664 14.5305 12.7855 14.5324C12.8478 13.6392 11.7017 12.7412 12.2061 11.7221C12.307 11.5187 12.2407 11.2688 12.0241 11.1612C11.2558 10.7796 11.6118 12.3644 10.8445 12.4128C10.9908 12.2317 11.0462 11.8558 11.068 11.8229C10.9048 11.8645 10.5142 12.1086 10.3382 11.7967C10.7871 11.5575 10.9157 11.1971 10.9859 10.8357C11.0749 10.3785 11.1164 10.1664 11.2064 9.97844C11.3013 9.77788 11.4526 9.60354 11.7769 9.19186C11.6998 9.20247 10.8366 9.38173 10.6417 9.29259C12.1359 8.39356 11.7996 7.25147 14.0769 6.23335C13.4797 5.79839 12.8696 5.45158 13.3067 4.62139C13.9306 5.35565 15.1162 5.10191 15.757 4.76089C15.1241 4.63688 14.3083 4.09058 14.1155 3.48216C14.3538 3.44633 14.6633 3.70015 14.8403 3.81832C14.9263 3.59358 14.96 3.33296 15.2378 3.27683C14.867 4.05276 15.5988 4.45765 16.2969 4.46059C16.4056 4.46059 16.8566 4.41602 16.8566 4.41602C16.7844 4.27072 16.4927 3.87354 16.7043 3.7137C16.8753 3.87068 17.079 3.99564 17.264 4.13511C18.6216 5.16387 16.6192 6.11709 15.8005 6.5501C14.516 7.23018 14.8601 8.04003 15.396 8.24639C15.3941 8.33743 15.3367 8.37811 15.2477 8.40719C14.872 8.52921 14.5199 8.26669 14.2204 8.09815C14.2381 8.60576 14.2025 9.09398 14.7761 9.37295L14.3815 9.51345C14.7207 9.76624 14.8245 9.89998 15.2329 9.9523C15.042 10.0433 14.8057 10.0414 14.603 10.0598C14.6544 10.2002 14.696 10.3911 14.8027 10.5171C13.9672 10.6139 13.632 10.147 13.3729 10.1654C12.8212 10.206 12.8558 11.2232 14.2134 11.2252L14.073 11.4528C14.073 11.4528 14.3301 11.6001 14.5664 11.6281C14.4764 11.6998 14.3894 11.7967 14.3133 11.8703L14.5298 12.0534C13.9751 12.1503 13.8189 11.5729 13.4589 11.851C12.9102 12.2772 14.1195 13.1752 15.2784 13.0415C15.1815 13.1636 14.9086 13.3437 14.7919 13.4368C15.7362 14.3106 15.2704 15.1339 15.6591 15.7375C14.8443 15.6852 14.2411 15.0991 14.0997 14.4665Z" fill="black"/>
<path fill-rule="evenodd" clip-rule="evenodd" d="M12.2818 11.553C12.4811 11.7582 12.7214 11.78 13.1771 11.7512C12.6753 11.6908 12.3939 11.5699 12.2187 11.2407C12.1924 11.0593 12.176 10.8766 12.1697 10.6935C12.1536 10.171 12.3279 9.54843 12.6924 8.86634C12.6904 9.29366 13.0319 9.96579 13.796 10.0778C13.109 9.78042 12.7054 9.11126 12.9257 8.46385C13.0772 8.22485 13.2389 7.99235 13.4104 7.76697C13.5006 7.65294 13.5887 7.54192 13.6748 7.43976C13.5827 7.76989 13.9862 8.11092 14.2566 8.16848C14.1104 8.02665 13.796 7.56765 14.522 6.79938C14.3197 6.89451 14.0954 7.02833 13.9252 7.15923C15.243 5.74949 16.3275 5.70981 16.8252 5C16.1042 5.48773 14.1946 5.75144 13.3363 5.52046C13.81 5.83376 14.9506 5.80498 15.23 5.74652C14.3007 6.64174 12.2698 7.56668 11.9173 8.3895C12.412 7.85221 12.7325 7.754 13.1611 7.61623C12.8236 8.1149 12.5202 8.55312 12.3109 9.06163C11.7701 10.2236 11.0471 10.2384 11 11.1961C11.2464 10.4536 11.747 10.2652 12.0936 9.77745C12.0324 10.0887 12.0034 10.4337 12.0145 10.8322C12.0265 11.2655 12.1146 11.6462 12.2538 11.9872C12.2187 12.4611 12.2608 13.27 12.8096 13.8044C12.437 13.3375 12.3569 12.5781 12.39 12.2817C12.8196 13.1015 14.0443 14.2357 14.6362 14.9971C14.0443 14.0186 12.5933 12.8745 12.2818 11.553ZM25.8379 7.61619C26.2636 7.75498 26.585 7.85311 27.0797 8.39044C26.7292 7.56761 24.6953 6.64264 23.766 5.74746C24.0454 5.80498 25.187 5.83465 25.6597 5.5214C24.8024 5.75242 22.8928 5.48871 22.1708 5.0009C22.6695 5.71075 23.753 5.75042 25.0718 7.16013C24.9026 7.02931 24.6783 6.89549 24.475 6.80028C25.2 7.56859 24.8866 8.0286 24.7394 8.17035C25.0098 8.11287 25.4133 7.77185 25.3212 7.44172C25.4083 7.54379 25.4965 7.65489 25.5866 7.76884C25.7582 7.99419 25.9199 8.22673 26.0713 8.4658C26.2916 9.11415 25.887 9.78331 25.202 10.0797C25.9661 9.96872 26.3086 9.29558 26.3046 8.86829C26.6702 9.55038 26.8444 10.1729 26.8284 10.6954C26.8214 10.8897 26.8043 11.0711 26.7783 11.2426C26.602 11.5718 26.3206 11.6927 25.8199 11.7532C26.2766 11.781 26.5159 11.7601 26.7162 11.555C26.4047 12.8765 24.9537 14.0205 24.3608 15C24.9537 14.2386 26.1765 13.1044 26.608 12.2846C26.6411 12.581 26.5609 13.3404 26.1884 13.8074C26.7372 13.273 26.7793 12.464 26.7442 11.9901C26.8824 11.6491 26.9695 11.2685 26.9836 10.8352C26.9966 10.4367 26.9656 10.0907 26.9054 9.78038C27.2529 10.2681 27.7526 10.4565 28 11.199C27.953 10.2404 27.2299 10.2255 26.6881 9.06358C26.4778 8.55207 26.1754 8.11385 25.8379 7.61619Z" fill="black"/>
<path fill-rule="evenodd" clip-rule="evenodd" d="M27.8573 9.55507C28.2741 9.61999 28.6018 9.62002 28.7577 9.20824C27.2256 8.48738 27.2384 6.97501 25.4777 6.18247C26.4458 5.47329 26.185 4.80768 25.7347 4.13624C25.259 4.96747 24.439 5.08089 23.9358 4.81054C24.644 4.55573 24.9118 3.69152 25.3414 3.43957C25.0726 3.15479 24.7294 3.14506 24.3301 3.41438C24.1143 2.84086 23.4022 3.02981 23.2953 3.02981C23.4817 3.21387 23.6582 3.4551 23.6249 3.71381C23.5513 4.28927 22.6048 4.19631 22.6048 4.19631C22.7961 3.80777 22.7107 3.57619 22.286 3.37664C22.1566 3.68572 21.1404 4.10231 21.0737 4.71273C20.9717 5.66704 22.1163 6.24643 23.1207 6.78412C24.2261 7.37416 23.821 8.01747 23.4199 8.03785C23.1972 8.71605 24.0486 8.8381 24.5331 8.56298C24.5312 8.65304 24.4694 9.1976 23.7269 9.24213C23.7897 9.45726 23.9123 9.52698 24.1065 9.5977C23.9613 9.70524 23.5376 9.72078 23.314 9.72078C23.3405 10.0153 23.6651 10.2527 24.0712 10.2924C24.0388 10.3815 23.8583 10.5249 23.6965 10.5695C24.1349 11.0006 25.3139 10.7167 25.5533 10.4687C25.6631 10.3544 25.7975 10.5162 25.6661 10.6887C25.5307 10.865 24.9383 11.0627 24.4576 10.9164C24.4027 11.1818 24.4949 11.2826 24.5704 11.3543C24.5704 11.3543 24.1006 11.4008 23.979 11.4657C24.0251 11.6653 24.2526 11.7806 24.3321 11.859C24.2516 11.9269 24.1565 12.0858 24.1222 12.2078C24.338 12.3105 24.9245 12.4704 25.2394 12.1158C25.3669 11.9753 25.5062 12.0645 25.3757 12.2437C24.9128 12.8734 23.8054 12.8832 23.414 12.6865C23.4032 13.1796 23.619 13.2814 23.8789 13.4848C23.0786 14.3946 23.6072 15.2036 23.0413 16C24.1075 16 24.7744 15.4254 24.9608 14.8877C24.9824 15.0786 25.0844 15.2452 25.3679 15.3024C25.3463 15.1019 25.4091 14.8984 25.513 14.693C25.7288 14.8645 26.1222 14.9042 26.6371 14.9255C26.0535 13.947 27.7053 12.9432 27.0501 11.6091C26.953 11.4085 27.2374 11.2806 27.2648 11.4851C27.4178 12.6293 28.0986 12.887 28.6724 12.5305C28.4997 12.3445 28.4281 12.3484 28.3183 12.1788C28.7047 12.2805 28.901 12.0034 29 11.6565C27.9564 11.2942 28.5204 10.4048 27.8573 9.55507ZM27.9456 11.8261C27.9662 11.859 28.0201 12.235 28.1663 12.4161C27.4041 12.3677 27.7573 10.7826 26.9951 11.1644C26.7803 11.271 26.7165 11.5209 26.8156 11.7253C27.3139 12.7446 26.1781 13.6427 26.2419 14.536C25.9613 14.5341 25.67 14.5263 25.4885 14.1533C25.3954 14.3394 25.2453 14.601 25.1639 14.8529L24.9363 14.4702C24.7951 15.1038 24.1968 15.689 23.3904 15.7423C23.774 15.1396 23.3129 14.3161 24.2507 13.4412C24.133 13.3482 23.8632 13.168 23.7662 13.0459C24.9167 13.1796 26.1153 12.2815 25.5709 11.8552C25.2149 11.5771 25.058 12.1546 24.5096 12.0577L24.7245 11.8746C24.6489 11.8009 24.5616 11.705 24.4724 11.6323C24.7068 11.6042 24.9618 11.457 24.9618 11.457L24.8225 11.2293C26.1692 11.2273 26.2016 10.21 25.6573 10.1693C25.4012 10.1509 25.0677 10.6189 24.2389 10.521C24.3439 10.3951 24.387 10.2042 24.438 10.0637C24.2379 10.0453 24.0015 10.0473 23.8132 9.95617C24.2183 9.90487 24.3203 9.77016 24.6567 9.51828L24.2664 9.37681C24.8343 9.09681 24.798 8.60946 24.8157 8.10182C24.5194 8.27038 24.1683 8.53195 23.7985 8.41086C23.7102 8.38182 23.6523 8.3411 23.6504 8.25004C24.183 8.0427 24.5224 7.23372 23.2492 6.55353C22.438 6.12046 20.4509 5.1671 21.7966 4.13914C21.9809 3.99965 22.1811 3.87364 22.3498 3.71766C22.5607 3.87753 22.2723 4.27477 22.2007 4.42009C22.2007 4.42009 22.648 4.46467 22.7539 4.46467C23.4473 4.46173 24.1741 4.05678 23.8064 3.27978C24.082 3.33595 24.1143 3.59848 24.1987 3.82231C24.3752 3.70411 24.6813 3.45121 24.9196 3.48704C24.7264 4.09456 23.9192 4.64198 23.2904 4.76601C23.9251 5.10703 25.102 5.36089 25.721 4.62648C26.1545 5.4568 25.5503 5.80363 24.9569 6.23865C27.2168 7.25597 26.8823 8.39926 28.3654 9.29835C28.1741 9.3875 27.3149 9.20824 27.2384 9.1976C27.5621 9.60934 27.7131 9.78371 27.8053 9.98429C27.8955 10.1722 27.9348 10.3834 28.024 10.8417C28.0947 11.2031 28.2231 11.5636 28.6665 11.8028C28.4929 12.1119 28.1064 11.8678 27.9456 11.8261ZM17.1845 14.3268L17.5072 14.0566L17.4582 13.9597C17.4228 13.8899 17.4415 13.886 17.4788 13.8589L17.6494 13.7339C17.6887 13.702 17.7299 13.7059 17.7779 13.7175L18.289 13.8357H17.7495C17.6249 13.8434 17.5886 13.8909 17.5435 13.9819L17.5062 14.0566L17.368 14.3375C17.3208 14.4344 17.2963 14.5633 17.4199 14.7086L17.518 14.8239L17.3199 15.2202H17.4866L17.6239 14.945C17.6347 14.9353 17.8378 14.7522 17.8809 14.5633C17.8221 14.5158 17.7809 14.4829 17.8132 14.417L17.875 14.2852C17.8957 14.2416 17.9025 14.2242 17.9613 14.2348L18.4969 14.3492C18.5636 14.3676 18.6617 14.3966 18.7333 14.2901C18.8068 14.1796 18.8167 14.1913 18.9873 14.2077L19.261 14.2367C19.6347 14.2717 20.0084 14.1796 20.1535 14.0653C20.2046 14.1796 20.3056 14.2678 20.3527 14.3569C20.3703 14.3899 20.3409 14.4364 20.3183 14.4945L20.0113 15.2192H20.4851L20.7529 14.5584C20.7774 14.4955 20.8137 14.4451 20.8411 14.4199L20.6871 15.2202H21.1472L21.2688 14.4286C21.2953 14.2523 21.2796 14.1961 21.1943 14.1234C21.003 13.9635 21.0069 13.6283 20.9451 13.4249C20.98 13.4048 21.0208 13.3969 21.0609 13.4026C21.1609 13.4113 21.2364 13.6642 21.3541 13.8269C21.5896 14.1534 21.9103 14.5139 22.2781 14.0062C22.2437 13.949 22.2039 13.8952 22.1594 13.8453L22.0564 13.7262C21.9966 13.6603 21.7122 13.3386 21.5935 13.2234C21.3237 12.955 20.9098 12.9957 20.745 13.1265C20.3713 12.9327 19.977 13.1361 19.8839 13.1284L19.2404 13.0896C19.211 13.0877 19.1668 13.078 19.1354 13.0286L19.2551 12.9899C19.1433 12.5296 18.8618 12.145 18.3703 12.0781C18.3703 12.0781 18.3419 11.9328 18.2664 11.9047L18.1193 12.0753C18.0768 12.0815 18.0353 12.0929 17.9957 12.1091L17.368 11.8786L17.8388 12.3485C17.8388 12.3485 17.5945 12.6904 17.5249 12.7602C17.4788 12.8242 17.4827 12.8736 17.5346 12.9346L17.6259 13.0528C17.673 13.1138 17.725 13.1119 17.8005 13.0741L17.9035 13.0209C17.9486 12.984 18.0996 13.0567 18.1644 12.9986C18.1232 13.1323 18.1026 13.2611 18.0928 13.3628L17.6701 13.3125C17.5778 13.2999 17.5356 13.3125 17.4798 13.3561L17.1188 13.6303C17.0011 13.7194 16.9648 13.8734 17.0374 14.0236L17.1845 14.3268ZM20.6764 14.4054L20.39 15.1029H20.2114L20.4979 14.4276C20.5272 14.3405 20.4714 14.2998 20.3998 14.2048C20.5057 14.2639 20.5822 14.3027 20.7107 14.3511C20.6999 14.3705 20.6862 14.3812 20.6764 14.4054ZM17.9143 12.8949L17.8328 12.9376C17.776 12.9695 17.7475 12.984 17.6985 12.9239L17.6631 12.8794C17.6455 12.8581 17.6396 12.8067 17.6759 12.766L18.0271 12.362L17.7034 12.0995L18.1153 12.2496L18.2664 12.0636C18.3105 12.1004 18.2949 12.2079 18.2949 12.2079C18.4616 12.2079 18.9471 12.4463 18.9658 13.0432C18.9658 13.0432 19.0756 13.203 19.2159 13.2117L19.9309 13.2543C20.0496 13.2543 20.3458 13.0315 20.7264 13.2418C20.8225 13.1846 20.9255 13.1391 21.0314 13.1275C21.3669 13.1032 21.614 13.3338 21.7975 13.5663C21.9319 13.7349 22.1163 13.9926 22.1163 13.9926C22.0368 14.0857 21.9593 14.1166 21.8936 14.0934C21.7945 14.043 21.7622 13.9645 21.7308 13.855C21.6808 13.6816 21.4876 13.5334 21.4876 13.5334C21.5533 13.6497 21.567 13.7814 21.5984 13.9025C21.3189 13.6293 21.2659 13.296 21.0707 13.2495C20.9844 13.2282 20.8833 13.265 20.7901 13.3716C20.8883 13.5973 20.8833 13.8589 20.9844 14.0343C21.0609 14.1651 21.0776 14.1767 21.1118 14.2058C21.1943 14.2639 21.1481 14.3695 21.1354 14.446L21.0295 15.102H20.851L20.9687 14.4606C21.005 14.2649 20.4488 14.2649 20.1644 13.8919C19.9221 14.1718 19.2424 14.1021 18.9481 14.0585C18.8294 14.041 18.7137 14.0488 18.6489 14.1641C18.6107 14.229 18.5469 14.2096 18.5077 14.2L17.9711 14.0857C17.877 14.0643 17.8358 14.0827 17.7946 14.168L17.6877 14.387C17.6641 14.4383 17.6652 14.4761 17.7083 14.5178L17.7593 14.5711C17.7289 14.6757 17.6318 14.7561 17.6318 14.7561L17.515 14.6263C17.4582 14.5604 17.4552 14.4655 17.5003 14.3724L17.674 14.0139C17.6945 13.9742 17.7318 13.9316 17.8044 13.9316L18.4674 13.9219L18.2644 13.5954C18.1133 13.3503 18.3645 12.9133 18.3262 12.7069C18.3056 12.983 17.9673 12.8571 17.9143 12.8949ZM17.1943 13.7184L17.5082 13.482C17.5641 13.4404 17.6014 13.4133 17.6652 13.421L18.1085 13.4791C18.133 13.5837 18.2036 13.6865 18.2036 13.6865L17.7318 13.5886C17.6652 13.5809 17.6455 13.5837 17.5827 13.6283L17.3591 13.795C17.315 13.8289 17.313 13.8832 17.3385 13.9364L17.3748 14.013L17.2188 14.1292L17.159 14.0188C17.0982 13.9016 17.0943 13.794 17.1943 13.7184ZM18.5618 5.30758C18.7334 5.42486 19.0376 5.54984 19.0376 5.54984V5.35021L18.3675 5.09738C18.3675 5.09738 18.3675 5.1787 18.5618 5.30758ZM19.0364 5.06727V4.86767L18.2762 4.59931C18.2762 4.59931 18.3664 4.69426 18.5607 4.82504C18.7323 4.94133 19.0364 5.06727 19.0364 5.06727ZM19.0365 4.61396V4.41345L18.2037 4.11116C18.2037 4.11116 18.3665 4.24099 18.5608 4.37178C18.7324 4.48898 19.0365 4.61396 19.0365 4.61396Z" fill="black"/>
<path fill-rule="evenodd" clip-rule="evenodd" d="M22.114 7H23C22.9633 6.88655 22.8255 6.77224 22.5672 6.77224C22.3222 6.77224 22.1752 6.89644 22.114 7ZM21.1871 4L20.3225 4.28092V4.46725C20.3225 4.46725 20.639 4.35111 20.8176 4.24219C20.944 4.1654 21.0673 4.08462 21.1871 4ZM21.0187 4.91649L20.3225 5.15233V5.33785C20.3225 5.33785 20.639 5.22082 20.8176 5.11276C21.0187 4.99207 21.0187 4.91649 21.0187 4.91649ZM21.1125 4.45364L20.3214 4.70303V4.88851C20.3214 4.88851 20.6389 4.77236 20.8165 4.6643C21.0186 4.54187 21.1125 4.45364 21.1125 4.45364ZM17.4328 6.77224C17.1745 6.77224 17.0367 6.88655 17 7H17.887C17.8238 6.89644 17.6788 6.77224 17.4328 6.77224Z" fill="black"/>
<path fill-rule="evenodd" clip-rule="evenodd" d="M21.0199 3.93289C21.0199 3.4407 20.297 3 19.4991 3C18.7013 3 17.9783 3.44074 17.9783 3.93289L17.9951 4.05389L18.3125 6.1445L16.8049 7.14996C16.6444 7.25789 16.4435 7.55439 16.4179 7.85292H16.693C16.7388 7.55439 16.9442 7.22357 17.3295 7.24379C17.6777 7.26496 17.884 7.507 18.0885 7.85292L18.1414 7.94369L18.2172 8.07983H16C16.1631 8.45395 16.3174 8.85131 16.3174 9.28196V14.5554C16.3174 15.9118 17.2281 16.5583 18.2146 16.5583C18.9763 16.5583 19.0795 16.5189 19.5 17C19.9188 16.5189 20.0219 16.5583 20.7854 16.5583C21.7711 16.5583 22.6826 15.9118 22.6826 14.5554V9.28296C22.6826 8.8523 22.8369 8.45494 23 8.08082H20.781L20.8577 7.94468L20.9106 7.85391C21.1142 7.50799 21.3214 7.26595 21.6696 7.24478C22.0532 7.2246 22.2603 7.55539 22.3053 7.85391H22.5795C22.5548 7.55539 22.3529 7.25789 22.1933 7.15099L20.6858 6.14549L21.004 4.05488L21.0199 3.93293V3.93289ZM18.2869 4.17286L19.4118 4.61058V6.62457L18.5832 6.12634L18.2869 4.17286ZM18.5637 8.44592C18.7119 8.67783 18.9516 8.84929 19.2355 8.91586C19.2634 9.05856 19.3319 9.18662 19.4304 9.27994C19.3836 9.63996 19.5185 9.97579 19.8571 10.0645C19.8923 10.2481 19.9919 10.3862 20.1585 10.4518L19.9231 10.7624C19.8333 10.8814 19.716 10.9198 19.619 10.9056L18.5681 10.7695C18.614 10.6364 18.4923 10.4821 18.1599 10.5476L18.5734 9.22647L18.3213 8.61432L17.8435 9.08024L17.8082 10.4659L17.6054 10.352C17.3383 10.2209 17.2607 10.7725 17.5146 10.7745L17.6151 10.7755C17.6089 10.832 17.6239 10.8945 17.6627 10.9137C17.6151 10.9369 17.601 11.0398 17.6609 11.0761C17.6001 11.1083 17.5922 11.2132 17.6407 11.2586C17.5878 11.3605 17.5798 11.5813 17.7641 11.6368C17.9149 11.6822 18.0092 11.4966 18.04 11.3887L19.6745 11.9676C19.9064 12.0432 20.0704 12.0009 20.2626 11.8082L20.6893 11.3816C20.6355 11.661 20.7237 11.9121 20.9097 11.9958C20.9097 11.9958 20.8832 12.2469 20.8912 12.3588H16.6356V9.28296C16.6356 8.99654 16.5633 8.71017 16.477 8.44592H18.5637ZM20.3216 9.61271C20.2318 9.80938 20.2405 10.0353 20.3463 10.24L20.2758 10.3186C19.969 10.2753 19.8482 9.7519 19.8482 9.7519C19.8421 9.79929 19.8385 9.8447 19.8394 9.89106C19.6605 9.81542 19.5476 9.63392 19.5564 9.38485C19.6243 9.42819 19.7002 9.45842 19.7812 9.47459L19.8024 9.32125C19.5881 9.2789 19.463 9.12565 19.4154 8.94407C19.4048 8.94307 19.396 8.9401 19.3863 8.93902C19.4242 8.94208 19.4621 8.94613 19.5009 8.94613C19.6278 8.94613 19.7486 8.92393 19.8615 8.88559C19.9505 9.03083 20.1083 9.13471 20.267 9.15485C20.2414 9.27589 20.2538 9.42616 20.3216 9.61271ZM20.7757 10.9964C20.744 11.0451 20.7198 11.0997 20.7043 11.1577L20.5332 11.3373C20.5676 11.0508 20.3993 10.713 20.2458 10.5748L20.4274 10.3711L20.4636 10.4135C20.4028 10.596 20.5218 10.954 20.7757 10.9964ZM19.9496 10.9066L20.0907 10.7483C20.2335 10.8915 20.4222 11.2112 20.3631 11.5158L20.2097 11.6771C20.1779 11.7125 20.1453 11.7376 20.1119 11.7608C20.208 11.4896 20.0854 11.072 19.9496 10.9066ZM19.6463 11.0408H19.6507C19.7019 11.0499 19.7566 11.0398 19.8059 11.0166C19.9135 11.1921 19.9972 11.5914 19.8685 11.8405C19.7953 11.8426 19.724 11.8274 19.6569 11.8052L19.604 11.7871C19.7125 11.5944 19.6975 11.2535 19.6463 11.0408ZM19.2911 10.9903L19.4894 11.0186C19.5212 11.2072 19.5 11.5329 19.3951 11.7185L19.1641 11.6418C19.2655 11.4845 19.3131 11.1608 19.2911 10.9903ZM18.8776 10.9329L19.1183 10.9651C19.1421 11.1164 19.0971 11.4381 19.0063 11.5914L18.7612 11.5107C18.8591 11.3625 18.8943 11.1013 18.8776 10.9329ZM17.9034 10.8593C17.7914 10.9006 17.7421 10.8078 17.7465 10.7292C17.966 10.6374 18.0638 10.6969 18.1282 10.7433C18.1873 10.7856 18.2367 10.9066 18.316 10.9823C18.3028 11.0851 18.2754 11.2344 18.2428 11.3342C18.018 11.2687 18.0066 11.0417 18.0903 10.9036C18.0436 10.8411 17.9942 10.8249 17.9034 10.8593ZM17.7465 11.3605C17.7465 11.3605 17.8135 11.3927 17.8981 11.3998C17.8884 11.4533 17.8522 11.5037 17.795 11.4896C17.7474 11.4774 17.7262 11.4109 17.7465 11.3605ZM17.5252 10.6242C17.4696 10.5819 17.4943 10.4891 17.556 10.4891C17.6239 10.4911 17.7138 10.5788 17.8029 10.6222C17.8029 10.6222 17.5692 10.6585 17.5252 10.6242ZM17.7535 11.1587C17.802 11.2122 17.9475 11.1921 17.9475 11.1921L17.9528 11.2253C17.8893 11.3222 17.713 11.2788 17.7535 11.1587ZM17.9493 11.0488C17.8452 11.0962 17.7386 11.0317 17.7712 10.955C17.8197 11.0054 17.9545 10.9803 17.9545 10.9803L17.9493 11.0488ZM18.1027 9.66419L17.9034 10.4942L17.9713 9.15485L18.2798 8.85334L18.4368 9.24764L18.04 10.5487L18.145 9.67325C18.1547 9.61072 18.1114 9.60365 18.1027 9.66419ZM18.1168 10.6706C18.1168 10.6706 18.3389 10.6585 18.4015 10.6858C18.4473 10.7079 18.4165 10.7967 18.3565 10.7866C18.294 10.7776 18.1168 10.6706 18.1168 10.6706ZM18.465 10.8724L18.7065 10.9066C18.7251 11.0579 18.6907 11.3141 18.6043 11.4573L18.3707 11.3796C18.4324 11.2112 18.4473 11.0529 18.465 10.8724ZM22.3643 14.5564C22.3643 15.1978 22.1052 15.6849 21.674 15.9552L21.8283 15.5961H21.6785L21.4801 16.056C21.2747 16.1448 21.042 16.1942 20.7845 16.1942C19.9981 16.1942 19.79 16.2305 19.4991 16.5623C19.2073 16.2305 18.9993 16.1942 18.2137 16.1942C17.9581 16.1942 17.7253 16.1468 17.5208 16.0581H17.5261L17.7244 15.5961H17.5754L17.4017 16.0005C17.3605 15.9786 17.3202 15.9543 17.281 15.928L17.4238 15.5961H17.2757L17.1699 15.8432C16.8331 15.5598 16.6348 15.1161 16.6348 14.5564V12.5394H22.3626V14.5564H22.3643ZM22.524 8.44592C22.4349 8.71017 22.3635 8.99654 22.3635 9.28296V12.3588H22.0505C21.9086 12.2016 21.7887 11.6771 21.7887 11.6771C21.7111 11.8657 21.8001 12.2479 21.883 12.3588H21.4801C21.3805 12.2046 21.2941 11.658 21.2941 11.658C21.1733 11.8153 21.25 12.2399 21.325 12.3588H21.0569C21.0401 12.14 21.0948 11.902 21.0948 11.902C20.9547 11.8728 20.8057 11.7881 20.8066 11.6106C20.8771 11.6862 20.9062 11.6852 21.004 11.6832L21.1178 11.5803C20.7404 11.5945 20.7228 11.1204 21.0225 10.8985C20.7237 10.9097 20.5006 10.706 20.6091 10.3429C20.3966 10.2168 20.3216 9.80533 20.4786 9.62482C20.3649 9.4836 20.3463 9.20633 20.4187 9.01772C20.2679 9.01772 20.0986 8.94915 20.0043 8.83113C19.9972 8.83518 19.9884 8.8382 19.9805 8.84126C20.1691 8.75351 20.3287 8.6163 20.4363 8.44692H22.524V8.44592ZM21.3832 6.96544C21.0728 7.02697 20.8057 7.46164 20.587 7.85391L20.5624 7.89928H20.3287L20.3278 7.94568C20.304 8.24826 20.0528 8.65869 19.4991 8.65869C19.2435 8.65869 19.0503 8.56895 18.9182 8.44692C18.8035 8.34002 18.7312 8.20786 18.696 8.08185C18.6832 8.0377 18.6749 7.992 18.6713 7.94568L18.6695 7.89928H18.4376L18.413 7.85391C18.1934 7.46263 17.9263 7.02797 17.6169 6.96544L18.4623 6.4037L19.5009 7.04914L20.5377 6.4037L21.3832 6.96544ZM20.4151 6.12634L19.5873 6.62457V4.61058L20.7122 4.17286L20.4151 6.12634ZM19.5 4.39079L18.2702 3.83504C18.3742 3.55264 18.8564 3.31164 19.5 3.31164C20.1427 3.31164 20.624 3.55264 20.7281 3.83504L19.5 4.39079Z" fill="black"/>
<path fill-rule="evenodd" clip-rule="evenodd" d="M22.9013 10.2844L22.9048 10.1276C22.3597 10.1163 22.2343 9.54953 22.2343 9.54953C22.0751 9.96662 22.4911 10.2782 22.9013 10.2844ZM22.2133 11.2447L22.1587 11.0961C21.6939 11.2006 21.4534 10.5508 21.4534 10.5508C21.3046 11.0233 21.8229 11.3574 22.2133 11.2447ZM22.5363 10.642C21.9809 10.7199 21.7532 10.1501 21.7532 10.1501C21.6915 10.4606 21.9193 10.7753 22.2877 10.808C22.204 11.2129 22.6305 11.4209 23 11.2764L22.9466 11.135C22.6258 11.2303 22.3249 10.9505 22.5363 10.642ZM22.2038 9.01561L22.2084 8.85878C21.4751 8.72556 21.5367 8.28074 21.5367 8.28074C21.3787 8.69993 21.7947 9.00944 22.2038 9.01561ZM17.558 15.5307L17.2953 16H17.4929L17.7543 15.5307H17.558ZM17.9543 15.5307L17.6928 16H17.8916L18.1507 15.5307H17.9543ZM19.5417 15.5307L19.2802 16H19.4766L19.7392 15.5307H19.5417ZM19.9393 15.5307L19.6755 16H19.8742L20.1345 15.5307H19.9393ZM19.1453 15.5307L18.8827 16H19.0803L19.3417 15.5307H19.1453ZM21.4638 16H21.6613L21.9227 15.5307H21.7252L21.4638 16ZM18.3515 15.5307L18.09 16H18.2875L18.549 15.5307H18.3515ZM18.747 15.5307L18.4856 16H18.6843L18.9458 15.5307H18.747ZM17.8495 13.0074C17.8134 13.0074 17.782 13.0382 17.782 13.0781C17.782 13.1171 17.8134 13.1488 17.8495 13.1488C17.8866 13.1488 17.9192 13.1171 17.9192 13.0781C17.918 13.0382 17.8866 13.0074 17.8495 13.0074ZM19.2985 2.41332C20.112 2.41332 20.7639 2.65109 21.1229 2.90626C21.1229 2.90626 21.231 2.33645 21.5947 1.83632L20.9393 1.90087L20.5965 1.25727L19.9377 1.55963L19.2985 1L18.6594 1.55959L17.9982 1.25723L17.6554 1.90087L17 1.83628C17.3649 2.33645 17.4718 2.90626 17.4718 2.90626C17.8321 2.65113 18.4851 2.41336 19.2985 2.41336V2.41332ZM17.7681 2.15709L18.0807 1.57292L18.6594 1.84456L19.2985 1.28803L19.9377 1.84456L20.5164 1.57292L20.8255 2.15709L21.2101 2.10486C21.1113 2.26779 21.037 2.41021 20.9684 2.61007C20.5478 2.39386 19.9226 2.22677 19.2985 2.22677C18.6722 2.22677 18.0482 2.39386 17.6275 2.61007C17.5578 2.41025 17.4846 2.26779 17.3847 2.10486L17.7681 2.15709Z" fill="black"/>
<path fill-rule="evenodd" clip-rule="evenodd" d="M20.0985 1.44041C20.1837 1.44745 20.2595 1.38483 20.2668 1.30302C20.2751 1.22023 20.1505 1 20.1505 1C20.1505 1 19.9645 1.19492 19.9582 1.27776C19.9499 1.35857 20.0143 1.43233 20.0985 1.44037V1.44041ZM21.0585 1.77869C21.1344 1.81808 21.2268 1.78879 21.2674 1.71503C21.3089 1.64229 21.2819 1.39282 21.2819 1.39282C21.2819 1.39282 21.0346 1.50093 20.9941 1.57466C20.9546 1.64739 20.9837 1.7383 21.0585 1.77869ZM18.9006 1.44041C18.9868 1.43233 19.0502 1.35956 19.0429 1.27776C19.0346 1.19492 18.8507 1 18.8507 1C18.8507 1 18.7271 1.22122 18.7344 1.30302C18.7406 1.38483 18.8164 1.44745 18.9006 1.44037V1.44041ZM17.9416 1.77869C18.0174 1.7383 18.0454 1.64739 18.0059 1.57462C17.9665 1.50093 17.7181 1.39282 17.7181 1.39282C17.7181 1.39282 17.6922 1.64229 17.7338 1.71507C17.7429 1.73266 17.7556 1.7483 17.7711 1.76106C17.7866 1.77382 17.8045 1.78345 17.8239 1.78938C17.8432 1.7953 17.8636 1.79741 17.8838 1.79558C17.904 1.79374 17.9237 1.788 17.9416 1.77869ZM29.4587 6.91004C29.6634 6.8393 29.8213 6.64943 29.9003 6.47365C29.3797 6.40092 27.9968 5.83625 26.8601 6.29588C27.2862 5.90293 27.6685 5.85244 27.7049 5.28682C27.8815 5.41004 28.1797 5.47971 28.348 5.18576C28.2306 4.84939 27.9345 5.12214 27.8929 5.02919C27.8347 4.89988 28.2659 5.06862 28.3584 4.63123C28.0228 4.51911 27.923 4.78577 27.8628 4.72414C27.8077 4.66561 28.0758 4.55341 27.8784 4.20093C27.5293 4.39991 27.7111 4.62316 27.6374 4.64842C27.548 4.68272 27.6186 4.40898 27.2321 4.42211C27.1937 4.82516 27.5947 4.83829 27.5293 4.90195C27.4493 4.9797 27.3454 4.67058 27.0534 4.82719C27.0586 5.15245 27.3298 5.33122 27.6093 5.25447C27.5636 5.87265 26.9796 5.75751 26.5453 6.45447C27.4659 6.91306 27.8825 7.71308 28.4488 8.26656C28.6358 8.13733 28.9558 7.56355 28.9558 7.56355C29.5688 8.02517 30 7.56558 30 7.56558C29.7891 7.35546 29.7808 7.19591 29.4587 6.91004ZM28.5652 7.02216C28.6285 7.15855 28.7542 7.63426 28.454 7.99692C28.1121 7.33326 27.6425 6.76458 27.2622 6.51912C27.1791 6.4666 27.308 6.37466 27.5428 6.34434C28.2503 6.21403 29.0805 6.50496 29.4753 6.60702C29.2914 6.7403 29.1418 6.80094 28.9538 6.82318C29.2405 7.05749 29.4504 7.25548 29.5979 7.4757C29.3205 7.54338 29.1636 7.37265 28.5652 7.02216ZM22.6543 17.3394V16.5838C22.0538 16.8515 21.2902 17.0687 20.3073 17.1546L20.2626 17.4242C20.3457 17.4354 20.4517 17.4455 20.593 17.4546C20.2293 17.5031 19.7587 17.5263 19.501 17.5263C19.2423 17.5263 18.7727 17.5031 18.408 17.4546C18.5483 17.4455 18.6542 17.4354 18.7374 17.4242L18.6927 17.1546C17.7098 17.0687 16.9451 16.8515 16.3456 16.5838V17.3394L15.531 17.6647C16.1347 17.9697 16.8288 18.2182 17.6308 18.4193L17.5352 18.7354C17.9945 18.8667 18.729 19 19.4989 19C20.2688 19 21.0024 18.8657 21.4626 18.7354L21.368 18.4193C22.1692 18.2182 22.8653 17.9697 23.4689 17.6647L22.6543 17.3394ZM15.9664 17.6819L16.516 17.4667V16.8515C16.8692 16.9838 17.3326 17.1212 17.9976 17.2556L17.6859 18.2424C17.0075 18.091 16.4308 17.8869 15.9664 17.6819ZM19.5 18.8192C18.8797 18.8192 18.274 18.7293 17.7566 18.6051L18.0859 17.5697C18.3041 17.6192 18.8506 17.6839 19.5 17.6839C20.1504 17.6839 20.6938 17.6182 20.913 17.5697L21.2434 18.6051C20.7239 18.7293 20.1192 18.8192 19.5 18.8192ZM21.3151 18.2424L21.0034 17.2556C21.6683 17.1222 22.1317 16.9838 22.485 16.8515V17.4667L23.0336 17.6819C22.5692 17.8869 21.9946 18.091 21.3151 18.2424ZM10.0442 7.56355C10.0442 7.56355 10.3642 8.13733 10.5502 8.26656C11.1175 7.71407 11.5351 6.91406 12.4547 6.45447C12.0193 5.75751 11.4354 5.87468 11.3917 5.25447C11.6712 5.33122 11.9414 5.15142 11.9476 4.82719C11.6546 4.67058 11.5507 4.98176 11.4718 4.90195C11.4063 4.83626 11.8063 4.82516 11.7689 4.42211C11.3824 4.41001 11.453 4.68272 11.3627 4.64842C11.2899 4.62316 11.4717 4.39887 11.1216 4.20093C10.9253 4.55448 11.1943 4.66561 11.1382 4.72414C11.0791 4.78577 10.9772 4.52011 10.6426 4.63123C10.733 5.06862 11.1663 4.89988 11.1081 5.02919C11.0666 5.12214 10.7714 4.84939 10.6551 5.18576C10.8213 5.48074 11.1206 5.41103 11.2962 5.28781C11.3336 5.85447 11.7149 5.90194 12.1419 6.29588C11.0042 5.83625 9.62134 6.40092 9.09868 6.47464C9.1787 6.64943 9.33659 6.8393 9.54133 6.90801C9.21924 7.19691 9.21088 7.35654 9 7.56558C9 7.56558 9.43016 8.02517 10.0442 7.56355H10.0442ZM9.39998 7.4767C9.54858 7.25647 9.75746 7.05749 10.0463 6.82418C9.85712 6.80094 9.70856 6.7403 9.52364 6.60702C9.91949 6.50496 10.7507 6.21304 11.4593 6.34434C11.692 6.37466 11.823 6.4666 11.7377 6.51912C11.3575 6.76458 10.8868 7.33326 10.545 7.99692C10.2457 7.63426 10.3725 7.15955 10.4338 7.02316C9.83636 7.37265 9.68051 7.54338 9.39998 7.4767ZM19.0022 7.1424V7.47475C19.1196 7.33637 19.3482 7.36362 19.3482 7.36362V7.84342C19.3482 7.84342 19.3399 8.07984 19.2547 8.18082H19.7472C19.6609 8.07984 19.6537 7.84342 19.6537 7.84342V7.36461C19.6537 7.36461 19.8812 7.3374 19.9986 7.47574V7.14339H19.0022V7.1424Z" fill="black"/>
</svg>
