<svg xmlns="http://www.w3.org/2000/svg" width="70" height="22" viewBox="0 0 70 22"><defs><linearGradient id="y6sca" x1="31.9" x2="38.13" y1="22.43" y2="-.01" gradientUnits="userSpaceOnUse"><stop offset="0" stop-color="#222357"/><stop offset="1" stop-color="#254aa5"/></linearGradient></defs><g><g><g/><g><g><path fill="url(#y6sca)" d="M45.757 0c2.18 0 3.932.463 5.294.945l-.996 4.51c-2.532-1.133-4.766-1.053-5.575-.95-1.635.208-2.382 1.02-2.4 1.78-.055 2.51 7.948 2.822 7.926 8.437C49.987 19.147 46.1 22 40.16 22c-2.532-.021-4.971-.538-6.29-1.128l1.023-4.663c1.313.596 2.967 1.387 5.808 1.344 1.627-.026 3.369-.655 3.385-2.084.009-.934-.73-1.602-2.934-2.645-2.143-1.016-4.99-2.725-4.949-5.79C36.233 2.893 40.168 0 45.757 0zm19.677.389L70 21.67h-5.228l-.687-3.177h-7.254L55.65 21.67h-5.936l8.484-19.72C58.606 1.004 59.52.39 60.605.39zm-6.978 13.74h4.692l-1.715-7.992zM29.006.388h5.652l-4.676 21.278h-5.657zm-2.428 0l-9.165 21.278h-5.978L6.923 4.687c-.273-1.046-.51-1.432-1.342-1.871C4.22 2.097 1.977 1.424 0 1.006L.134.389h9.625c1.225 0 2.33.793 2.609 2.168l2.381 12.316L20.636.39z"/></g></g></g></g></svg>