<svg xmlns="http://www.w3.org/2000/svg" width="78" height="35" viewBox="0 0 78 35"><g><g><g/><g><g><path fill="#2d3540" d="M70.822 23.571c0-.627-.423-1.008-.96-1.008-.605 0-1.05.402-1.16 1.008zm-10.553 0c0-.627-.426-1.008-.96-1.008-.602 0-1.05.402-1.16 1.008zM46.007 25.66c.78 0 1.428-.606 1.428-1.503 0-.875-.645-1.503-1.428-1.503-.781 0-1.407.606-1.407 1.503 0 .897.626 1.503 1.407 1.503zm28.187-3.878v1.837h.58l1.16-1.837h1.318l-1.518 2.285v.022l1.697 2.487h-1.385l-1.25-1.952h-.626v1.952h-1.182V21.78zm-4.286-.112c1.361 0 2.123 1.009 2.123 2.264a3.417 3.417 0 0 1-.046.47h-3.28c.068.83.713 1.278 1.429 1.278.49 0 .98-.226 1.36-.517l.47.854c-.491.427-1.229.693-1.923.693-1.583 0-2.567-1.141-2.567-2.509 0-1.503 1.006-2.533 2.434-2.533zm-7.877 3.897c.58-.09 1.002-.581 1.002-2.285v-1.5h3.484v4.794h-1.182v-3.836h-1.16v.539c0 2.084-.558 3.297-2.141 3.337v-1.049zm-2.679-3.897c1.361 0 2.12 1.009 2.12 2.264a3.003 3.003 0 0 1-.043.47h-3.283c.068.83.716 1.278 1.428 1.278.491 0 .982-.226 1.361-.517l.47.854c-.491.427-1.226.693-1.92.693-1.586 0-2.567-1.141-2.567-2.509.003-1.503 1.006-2.533 2.434-2.533zm-8.637.112v3.764h1.497v-3.761h1.139v3.76h1.493v-3.76h1.139v4.794H49.62V21.78zm-4.708-.112c1.447 0 2.635 1.055 2.635 2.509 0 1.481-1.16 2.508-2.614 2.508-1.45 0-2.61-1.03-2.61-2.508-.025-1.479 1.138-2.509 2.589-2.509zm-6.56-1.769v2.71h.87l1.564-2.71H43.2l-1.873 3.183v.021l1.984 3.474h-1.358l-1.608-2.917h-.87v2.917h-1.206V19.9z"/></g><g><path fill="#ff8c00" d="M43.842 12.573c-.133-.158-.022-.403.179-.403h2.589c.133-.358.2-.763.2-1.166 0-1.858-1.382-3.473-3.28-3.473-1.894 0-3.28 1.615-3.28 3.473 0 1.86 1.386 3.452 3.28 3.452.534.019 1.071-.136 1.54-.383zM15.947 31.078C7.465 31.078.59 24.178.59 15.663.59 7.147 7.465.25 15.944.25c8.48 0 15.355 6.9 15.355 15.413a15.52 15.52 0 0 1-2.166 7.908c-.044.069-.158.047-.18-.043-.53-3.786-2.832-5.87-6.177-6.498-.29-.044-.336-.226.043-.266 1.025-.09 2.478-.068 3.237.065.043-.38.065-.786.065-1.188 0-5.626-4.551-10.198-10.155-10.198-5.6 0-10.155 4.572-10.155 10.198 0 5.623 4.554 10.195 10.155 10.195h.466a13.73 13.73 0 0 1-.2-2.756c.02-.628.157-.721.425-.226 1.407 2.44 3.413 4.64 7.341 5.512 3.215.717 6.427 1.546 9.886 5.96.312.38-.154.782-.515.47-3.524-3.136-6.739-4.17-9.661-4.17-3.277.029-5.508.452-7.76.452zm7.81-6.473c.358 0 .76.157 1.117.47.692.584.892 1.255.537 1.747-.2.245-.537.405-.916.405-.38 0-.78-.136-1.05-.383-.626-.538-.802-1.435-.4-1.924.154-.204.398-.316.712-.316zm3.391-2.534c.58.223.803 1.098.849 1.479.09.693-.111.965-.333.965-.222 0-.537-.272-.87-.807-.337-.539-.47-1.142-.29-1.457.107-.201.354-.291.644-.18zm23.5-5.487c.134.158.026.378-.178.378h-2.811a.342.342 0 0 1-.29-.133l-.466-.582c-.981.625-2.142 1.009-3.37 1.009-3.437 0-6.227-2.803-6.227-6.251 0-3.45 2.79-6.252 6.227-6.252 3.438 0 6.227 2.803 6.227 6.252a6.305 6.305 0 0 1-.984 3.383zM77.048 5.357V16.67c.003.213-.099.319-.312.312h-2.299c-.213.007-.317-.099-.311-.312V5.357c-.006-.214.095-.319.311-.313h2.3c.157 0 .29.136.31.313zm-4.197-.313c.09 0 .204.044.312.136.068.065.068.18.046.27l-3.795 11.335a.304.304 0 0 1-.29.204h-2.055a.29.29 0 0 1-.29-.204l-2.21-6.61-2.209 6.61a.297.297 0 0 1-.29.201h-2.055c-.133 0-.244-.065-.29-.2l-3.796-11.34c-.021-.09-.021-.18.047-.266.043-.09.157-.136.244-.136h2.567c.133 0 .244.09.29.223l2.03 6.7 2.231-6.7a.291.291 0 0 1 .29-.201h1.808a.29.29 0 0 1 .29.2l2.232 6.7 2.03-6.7c.043-.144.139-.222.29-.222zM54.91 16.671c.003.213-.095.319-.311.312h-2.296c-.216.006-.318-.099-.312-.312V5.357c-.006-.214.099-.319.312-.313h2.296c.212-.006.314.1.311.313z"/></g><g/></g></g></g></svg>