<svg xmlns="http://www.w3.org/2000/svg" width="84" height="24" viewBox="0 0 84 24"><defs><linearGradient id="60ssa" x1="59.23" x2="84" y1="4.91" y2="4.91" gradientUnits="userSpaceOnUse"><stop offset=".01" stop-color="#00a7e3"/><stop offset=".34" stop-color="#009edc"/><stop offset=".87" stop-color="#0085c9"/><stop offset="1" stop-color="#007ec4"/></linearGradient></defs><g><g><g/><g><g><path fill="#20aa4d" d="M46.772 2.536l-5.305 11.645h-.54V0H33.39v23.997h6.398a4.306 4.306 0 0 0 3.912-2.536l5.308-11.645h.539v14.181h7.537V0h-6.397c-1.682 0-3.211.99-3.915 2.536z"/></g><g><path fill="#20aa4d" d="M18.487 3.154l-3.14 11.027h-.54l-3.14-11.027C11.135 1.286 9.448 0 7.53 0H0v24h7.538V9.816h.539l4.306 14.181h5.385l4.31-14.181h.538v14.181h7.538V0h-7.529c-1.917 0-3.605 1.286-4.138 3.154z"/></g><g><path fill="#20aa4d" d="M60.31 10.91v13.089h7.523v-7.635h8.092c3.514 0 6.498-2.28 7.608-5.454z"/></g><g><path fill="url(#60ssa)" d="M75.923 0H59.23c1.013 5.585 5.838 9.816 11.644 9.816h12.964A8.319 8.319 0 0 0 84 8.178C84 3.664 80.382 0 75.923 0z"/></g></g></g></g></svg>