<svg width="69" height="63" viewBox="0 0 69 63" fill="none" xmlns="http://www.w3.org/2000/svg">
<path d="M63.5262 6.78104C59.9544 2.90705 55.0533 0.773438 49.7248 0.773438C45.7419 0.773438 42.0943 2.03265 38.883 4.51582C37.2627 5.76924 35.7945 7.30273 34.5 9.09258C33.206 7.30325 31.7373 5.76924 30.1164 4.51582C26.9057 2.03265 23.2581 0.773438 19.2752 0.773438C13.9467 0.773438 9.04509 2.90705 5.47327 6.78104C1.9441 10.6097 0 15.8403 0 21.51C0 27.3454 2.17467 32.6871 6.84357 38.3209C11.0202 43.3604 17.0231 48.4763 23.9746 54.4002C26.3483 56.4232 29.0388 58.7163 31.8326 61.159C32.5706 61.8054 33.5177 62.1613 34.5 62.1613C35.4818 62.1613 36.4294 61.8054 37.1664 61.16C39.9601 58.7169 42.6523 56.4227 45.027 54.3986C51.9774 48.4757 57.9803 43.3604 62.157 38.3204C66.8259 32.6871 69 27.3454 69 21.5094C69 15.8403 67.0559 10.6097 63.5262 6.78104Z" fill="#0052FF"/>
</svg>
