<svg width="15" height="13" viewBox="0 0 15 13" fill="none" xmlns="http://www.w3.org/2000/svg">
<path d="M0.239756 5.91716L5.65679 0.500008C5.81142 0.345375 6.01751 0.260498 6.23727 0.260498C6.45727 0.260498 6.66324 0.345497 6.81787 0.500008L7.3097 0.991955C7.46421 1.14634 7.54933 1.35256 7.54933 1.57244C7.54933 1.79219 7.46421 2.00536 7.3097 2.15975L4.14948 5.32692H14.1896C14.6423 5.32692 15 5.68131 15 6.13411V6.82959C15 7.28239 14.6423 7.67251 14.1896 7.67251H4.11363L7.30958 10.8574C7.46409 11.012 7.54921 11.2126 7.54921 11.4325C7.54921 11.6521 7.46409 11.8556 7.30958 12.0102L6.81775 12.5005C6.66312 12.6552 6.45714 12.7394 6.23715 12.7394C6.01739 12.7394 5.8113 12.6541 5.65666 12.4994L0.239635 7.08239C0.0846357 6.92727 -0.000607491 6.7202 2.86102e-06 6.50008C-0.00048542 6.27923 0.0846357 6.07204 0.239756 5.91716Z" fill="white"/>
</svg>
